<?xml version="1.0" encoding="utf-8" standalone="no"?>
<!DOCTYPE svg PUBLIC "-//W3C//DTD SVG 1.1//EN"
  "http://www.w3.org/Graphics/SVG/1.1/DTD/svg11.dtd">
<!-- Created with matplotlib (https://matplotlib.org/) -->
<svg height="360pt" version="1.1" viewBox="0 0 720 360" width="720pt" xmlns="http://www.w3.org/2000/svg" xmlns:xlink="http://www.w3.org/1999/xlink">
 <defs>
  <style type="text/css">
*{stroke-linecap:butt;stroke-linejoin:round;}
  </style>
 </defs>
 <g id="figure_1">
  <g id="patch_1">
   <path d="M 0 360 
L 720 360 
L 720 0 
L 0 0 
z
" style="fill:none;"/>
  </g>
  <g id="axes_1">
   <g id="patch_2">
    <path d="M 90 315 
L 648 315 
L 648 43.2 
L 90 43.2 
z
" style="fill:none;"/>
   </g>
   <g id="matplotlib.axis_1">
    <g id="xtick_1">
     <g id="text_1">
      <!-- 0 -->
      <defs>
       <path d="M 31.78125 66.40625 
Q 24.171875 66.40625 20.328125 58.90625 
Q 16.5 51.421875 16.5 36.375 
Q 16.5 21.390625 20.328125 13.890625 
Q 24.171875 6.390625 31.78125 6.390625 
Q 39.453125 6.390625 43.28125 13.890625 
Q 47.125 21.390625 47.125 36.375 
Q 47.125 51.421875 43.28125 58.90625 
Q 39.453125 66.40625 31.78125 66.40625 
z
M 31.78125 74.21875 
Q 44.046875 74.21875 50.515625 64.515625 
Q 56.984375 54.828125 56.984375 36.375 
Q 56.984375 17.96875 50.515625 8.265625 
Q 44.046875 -1.421875 31.78125 -1.421875 
Q 19.53125 -1.421875 13.0625 8.265625 
Q 6.59375 17.96875 6.59375 36.375 
Q 6.59375 54.828125 13.0625 64.515625 
Q 19.53125 74.21875 31.78125 74.21875 
z
" id="DejaVuSans-48"/>
      </defs>
      <g style="fill:#262626;" transform="translate(110.114574 340.037422)scale(0.165 -0.165)">
       <use xlink:href="#DejaVuSans-48"/>
      </g>
     </g>
    </g>
    <g id="xtick_2">
     <g id="text_2">
      <!-- 1 -->
      <defs>
       <path d="M 12.40625 8.296875 
L 28.515625 8.296875 
L 28.515625 63.921875 
L 10.984375 60.40625 
L 10.984375 69.390625 
L 28.421875 72.90625 
L 38.28125 72.90625 
L 38.28125 8.296875 
L 54.390625 8.296875 
L 54.390625 0 
L 12.40625 0 
z
" id="DejaVuSans-49"/>
      </defs>
      <g style="fill:#262626;" transform="translate(211.619872 340.037422)scale(0.165 -0.165)">
       <use xlink:href="#DejaVuSans-49"/>
      </g>
     </g>
    </g>
    <g id="xtick_3">
     <g id="text_3">
      <!-- 2 -->
      <defs>
       <path d="M 19.1875 8.296875 
L 53.609375 8.296875 
L 53.609375 0 
L 7.328125 0 
L 7.328125 8.296875 
Q 12.9375 14.109375 22.625 23.890625 
Q 32.328125 33.6875 34.8125 36.53125 
Q 39.546875 41.84375 41.421875 45.53125 
Q 43.3125 49.21875 43.3125 52.78125 
Q 43.3125 58.59375 39.234375 62.25 
Q 35.15625 65.921875 28.609375 65.921875 
Q 23.96875 65.921875 18.8125 64.3125 
Q 13.671875 62.703125 7.8125 59.421875 
L 7.8125 69.390625 
Q 13.765625 71.78125 18.9375 73 
Q 24.125 74.21875 28.421875 74.21875 
Q 39.75 74.21875 46.484375 68.546875 
Q 53.21875 62.890625 53.21875 53.421875 
Q 53.21875 48.921875 51.53125 44.890625 
Q 49.859375 40.875 45.40625 35.40625 
Q 44.1875 33.984375 37.640625 27.21875 
Q 31.109375 20.453125 19.1875 8.296875 
z
" id="DejaVuSans-50"/>
      </defs>
      <g style="fill:#262626;" transform="translate(313.12517 340.037422)scale(0.165 -0.165)">
       <use xlink:href="#DejaVuSans-50"/>
      </g>
     </g>
    </g>
    <g id="xtick_4">
     <g id="text_4">
      <!-- 3 -->
      <defs>
       <path d="M 40.578125 39.3125 
Q 47.65625 37.796875 51.625 33 
Q 55.609375 28.21875 55.609375 21.1875 
Q 55.609375 10.40625 48.1875 4.484375 
Q 40.765625 -1.421875 27.09375 -1.421875 
Q 22.515625 -1.421875 17.65625 -0.515625 
Q 12.796875 0.390625 7.625 2.203125 
L 7.625 11.71875 
Q 11.71875 9.328125 16.59375 8.109375 
Q 21.484375 6.890625 26.8125 6.890625 
Q 36.078125 6.890625 40.9375 10.546875 
Q 45.796875 14.203125 45.796875 21.1875 
Q 45.796875 27.640625 41.28125 31.265625 
Q 36.765625 34.90625 28.71875 34.90625 
L 20.21875 34.90625 
L 20.21875 43.015625 
L 29.109375 43.015625 
Q 36.375 43.015625 40.234375 45.921875 
Q 44.09375 48.828125 44.09375 54.296875 
Q 44.09375 59.90625 40.109375 62.90625 
Q 36.140625 65.921875 28.71875 65.921875 
Q 24.65625 65.921875 20.015625 65.03125 
Q 15.375 64.15625 9.8125 62.3125 
L 9.8125 71.09375 
Q 15.4375 72.65625 20.34375 73.4375 
Q 25.25 74.21875 29.59375 74.21875 
Q 40.828125 74.21875 47.359375 69.109375 
Q 53.90625 64.015625 53.90625 55.328125 
Q 53.90625 49.265625 50.4375 45.09375 
Q 46.96875 40.921875 40.578125 39.3125 
z
" id="DejaVuSans-51"/>
      </defs>
      <g style="fill:#262626;" transform="translate(414.630468 340.037422)scale(0.165 -0.165)">
       <use xlink:href="#DejaVuSans-51"/>
      </g>
     </g>
    </g>
    <g id="xtick_5">
     <g id="text_5">
      <!-- 4 -->
      <defs>
       <path d="M 37.796875 64.3125 
L 12.890625 25.390625 
L 37.796875 25.390625 
z
M 35.203125 72.90625 
L 47.609375 72.90625 
L 47.609375 25.390625 
L 58.015625 25.390625 
L 58.015625 17.1875 
L 47.609375 17.1875 
L 47.609375 0 
L 37.796875 0 
L 37.796875 17.1875 
L 4.890625 17.1875 
L 4.890625 26.703125 
z
" id="DejaVuSans-52"/>
      </defs>
      <g style="fill:#262626;" transform="translate(516.135766 340.037422)scale(0.165 -0.165)">
       <use xlink:href="#DejaVuSans-52"/>
      </g>
     </g>
    </g>
    <g id="xtick_6">
     <g id="text_6">
      <!-- 5 -->
      <defs>
       <path d="M 10.796875 72.90625 
L 49.515625 72.90625 
L 49.515625 64.59375 
L 19.828125 64.59375 
L 19.828125 46.734375 
Q 21.96875 47.46875 24.109375 47.828125 
Q 26.265625 48.1875 28.421875 48.1875 
Q 40.625 48.1875 47.75 41.5 
Q 54.890625 34.8125 54.890625 23.390625 
Q 54.890625 11.625 47.5625 5.09375 
Q 40.234375 -1.421875 26.90625 -1.421875 
Q 22.3125 -1.421875 17.546875 -0.640625 
Q 12.796875 0.140625 7.71875 1.703125 
L 7.71875 11.625 
Q 12.109375 9.234375 16.796875 8.0625 
Q 21.484375 6.890625 26.703125 6.890625 
Q 35.15625 6.890625 40.078125 11.328125 
Q 45.015625 15.765625 45.015625 23.390625 
Q 45.015625 31 40.078125 35.4375 
Q 35.15625 39.890625 26.703125 39.890625 
Q 22.75 39.890625 18.8125 39.015625 
Q 14.890625 38.140625 10.796875 36.28125 
z
" id="DejaVuSans-53"/>
      </defs>
      <g style="fill:#262626;" transform="translate(617.641064 340.037422)scale(0.165 -0.165)">
       <use xlink:href="#DejaVuSans-53"/>
      </g>
     </g>
    </g>
    <g id="text_7">
     <!-- Epoch -->
     <defs>
      <path d="M 9.8125 72.90625 
L 55.90625 72.90625 
L 55.90625 64.59375 
L 19.671875 64.59375 
L 19.671875 43.015625 
L 54.390625 43.015625 
L 54.390625 34.71875 
L 19.671875 34.71875 
L 19.671875 8.296875 
L 56.78125 8.296875 
L 56.78125 0 
L 9.8125 0 
z
" id="DejaVuSans-69"/>
      <path d="M 18.109375 8.203125 
L 18.109375 -20.796875 
L 9.078125 -20.796875 
L 9.078125 54.6875 
L 18.109375 54.6875 
L 18.109375 46.390625 
Q 20.953125 51.265625 25.265625 53.625 
Q 29.59375 56 35.59375 56 
Q 45.5625 56 51.78125 48.09375 
Q 58.015625 40.1875 58.015625 27.296875 
Q 58.015625 14.40625 51.78125 6.484375 
Q 45.5625 -1.421875 35.59375 -1.421875 
Q 29.59375 -1.421875 25.265625 0.953125 
Q 20.953125 3.328125 18.109375 8.203125 
z
M 48.6875 27.296875 
Q 48.6875 37.203125 44.609375 42.84375 
Q 40.53125 48.484375 33.40625 48.484375 
Q 26.265625 48.484375 22.1875 42.84375 
Q 18.109375 37.203125 18.109375 27.296875 
Q 18.109375 17.390625 22.1875 11.75 
Q 26.265625 6.109375 33.40625 6.109375 
Q 40.53125 6.109375 44.609375 11.75 
Q 48.6875 17.390625 48.6875 27.296875 
z
" id="DejaVuSans-112"/>
      <path d="M 30.609375 48.390625 
Q 23.390625 48.390625 19.1875 42.75 
Q 14.984375 37.109375 14.984375 27.296875 
Q 14.984375 17.484375 19.15625 11.84375 
Q 23.34375 6.203125 30.609375 6.203125 
Q 37.796875 6.203125 41.984375 11.859375 
Q 46.1875 17.53125 46.1875 27.296875 
Q 46.1875 37.015625 41.984375 42.703125 
Q 37.796875 48.390625 30.609375 48.390625 
z
M 30.609375 56 
Q 42.328125 56 49.015625 48.375 
Q 55.71875 40.765625 55.71875 27.296875 
Q 55.71875 13.875 49.015625 6.21875 
Q 42.328125 -1.421875 30.609375 -1.421875 
Q 18.84375 -1.421875 12.171875 6.21875 
Q 5.515625 13.875 5.515625 27.296875 
Q 5.515625 40.765625 12.171875 48.375 
Q 18.84375 56 30.609375 56 
z
" id="DejaVuSans-111"/>
      <path d="M 48.78125 52.59375 
L 48.78125 44.1875 
Q 44.96875 46.296875 41.140625 47.34375 
Q 37.3125 48.390625 33.40625 48.390625 
Q 24.65625 48.390625 19.8125 42.84375 
Q 14.984375 37.3125 14.984375 27.296875 
Q 14.984375 17.28125 19.8125 11.734375 
Q 24.65625 6.203125 33.40625 6.203125 
Q 37.3125 6.203125 41.140625 7.25 
Q 44.96875 8.296875 48.78125 10.40625 
L 48.78125 2.09375 
Q 45.015625 0.34375 40.984375 -0.53125 
Q 36.96875 -1.421875 32.421875 -1.421875 
Q 20.0625 -1.421875 12.78125 6.34375 
Q 5.515625 14.109375 5.515625 27.296875 
Q 5.515625 40.671875 12.859375 48.328125 
Q 20.21875 56 33.015625 56 
Q 37.15625 56 41.109375 55.140625 
Q 45.0625 54.296875 48.78125 52.59375 
z
" id="DejaVuSans-99"/>
      <path d="M 54.890625 33.015625 
L 54.890625 0 
L 45.90625 0 
L 45.90625 32.71875 
Q 45.90625 40.484375 42.875 44.328125 
Q 39.84375 48.1875 33.796875 48.1875 
Q 26.515625 48.1875 22.3125 43.546875 
Q 18.109375 38.921875 18.109375 30.90625 
L 18.109375 0 
L 9.078125 0 
L 9.078125 75.984375 
L 18.109375 75.984375 
L 18.109375 46.1875 
Q 21.34375 51.125 25.703125 53.5625 
Q 30.078125 56 35.796875 56 
Q 45.21875 56 50.046875 50.171875 
Q 54.890625 44.34375 54.890625 33.015625 
z
" id="DejaVuSans-104"/>
     </defs>
     <g style="fill:#262626;" transform="translate(341.440313 361.146094)scale(0.18 -0.18)">
      <use xlink:href="#DejaVuSans-69"/>
      <use x="63.183594" xlink:href="#DejaVuSans-112"/>
      <use x="126.660156" xlink:href="#DejaVuSans-111"/>
      <use x="187.841797" xlink:href="#DejaVuSans-99"/>
      <use x="242.822266" xlink:href="#DejaVuSans-104"/>
     </g>
    </g>
    <g id="text_8">
     <!-- 1e4 -->
     <defs>
      <path d="M 56.203125 29.59375 
L 56.203125 25.203125 
L 14.890625 25.203125 
Q 15.484375 15.921875 20.484375 11.0625 
Q 25.484375 6.203125 34.421875 6.203125 
Q 39.59375 6.203125 44.453125 7.46875 
Q 49.3125 8.734375 54.109375 11.28125 
L 54.109375 2.78125 
Q 49.265625 0.734375 44.1875 -0.34375 
Q 39.109375 -1.421875 33.890625 -1.421875 
Q 20.796875 -1.421875 13.15625 6.1875 
Q 5.515625 13.8125 5.515625 26.8125 
Q 5.515625 40.234375 12.765625 48.109375 
Q 20.015625 56 32.328125 56 
Q 43.359375 56 49.78125 48.890625 
Q 56.203125 41.796875 56.203125 29.59375 
z
M 47.21875 32.234375 
Q 47.125 39.59375 43.09375 43.984375 
Q 39.0625 48.390625 32.421875 48.390625 
Q 24.90625 48.390625 20.390625 44.140625 
Q 15.875 39.890625 15.1875 32.171875 
z
" id="DejaVuSans-101"/>
     </defs>
     <g style="fill:#262626;" transform="translate(616.851094 359.006328)scale(0.165 -0.165)">
      <use xlink:href="#DejaVuSans-49"/>
      <use x="63.623047" xlink:href="#DejaVuSans-101"/>
      <use x="125.146484" xlink:href="#DejaVuSans-52"/>
     </g>
    </g>
   </g>
   <g id="matplotlib.axis_2">
    <g id="ytick_1">
     <g id="text_9">
      <!-- $\mathdefault{10^{-4}}$ -->
      <defs>
       <path d="M 10.59375 35.5 
L 73.1875 35.5 
L 73.1875 27.203125 
L 10.59375 27.203125 
z
" id="DejaVuSans-8722"/>
      </defs>
      <g style="fill:#262626;" transform="translate(38.725 321.268711)scale(0.165 -0.165)">
       <use transform="translate(0 0.684375)" xlink:href="#DejaVuSans-49"/>
       <use transform="translate(63.623047 0.684375)" xlink:href="#DejaVuSans-48"/>
       <use transform="translate(128.203125 38.965625)scale(0.7)" xlink:href="#DejaVuSans-8722"/>
       <use transform="translate(186.855469 38.965625)scale(0.7)" xlink:href="#DejaVuSans-52"/>
      </g>
     </g>
    </g>
    <g id="ytick_2">
     <g id="text_10">
      <!-- $\mathdefault{10^{-3}}$ -->
      <g style="fill:#262626;" transform="translate(38.725 247.788796)scale(0.165 -0.165)">
       <use transform="translate(0 0.765625)" xlink:href="#DejaVuSans-49"/>
       <use transform="translate(63.623047 0.765625)" xlink:href="#DejaVuSans-48"/>
       <use transform="translate(128.203125 39.046875)scale(0.7)" xlink:href="#DejaVuSans-8722"/>
       <use transform="translate(186.855469 39.046875)scale(0.7)" xlink:href="#DejaVuSans-51"/>
      </g>
     </g>
    </g>
    <g id="ytick_3">
     <g id="text_11">
      <!-- $\mathdefault{10^{-2}}$ -->
      <g style="fill:#262626;" transform="translate(38.725 174.308882)scale(0.165 -0.165)">
       <use transform="translate(0 0.765625)" xlink:href="#DejaVuSans-49"/>
       <use transform="translate(63.623047 0.765625)" xlink:href="#DejaVuSans-48"/>
       <use transform="translate(128.203125 39.046875)scale(0.7)" xlink:href="#DejaVuSans-8722"/>
       <use transform="translate(186.855469 39.046875)scale(0.7)" xlink:href="#DejaVuSans-50"/>
      </g>
     </g>
    </g>
    <g id="ytick_4">
     <g id="text_12">
      <!-- $\mathdefault{10^{-1}}$ -->
      <g style="fill:#262626;" transform="translate(38.725 100.828967)scale(0.165 -0.165)">
       <use transform="translate(0 0.684375)" xlink:href="#DejaVuSans-49"/>
       <use transform="translate(63.623047 0.684375)" xlink:href="#DejaVuSans-48"/>
       <use transform="translate(128.203125 38.965625)scale(0.7)" xlink:href="#DejaVuSans-8722"/>
       <use transform="translate(186.855469 38.965625)scale(0.7)" xlink:href="#DejaVuSans-49"/>
      </g>
     </g>
    </g>
    <g id="ytick_5"/>
    <g id="ytick_6"/>
    <g id="ytick_7"/>
    <g id="ytick_8"/>
    <g id="ytick_9"/>
    <g id="ytick_10"/>
    <g id="ytick_11"/>
    <g id="ytick_12"/>
    <g id="ytick_13"/>
    <g id="ytick_14"/>
    <g id="ytick_15"/>
    <g id="ytick_16"/>
    <g id="ytick_17"/>
    <g id="ytick_18"/>
    <g id="ytick_19"/>
    <g id="ytick_20"/>
    <g id="ytick_21"/>
    <g id="ytick_22"/>
    <g id="ytick_23"/>
    <g id="ytick_24"/>
    <g id="ytick_25"/>
    <g id="ytick_26"/>
    <g id="ytick_27"/>
    <g id="ytick_28"/>
    <g id="ytick_29"/>
    <g id="ytick_30"/>
    <g id="ytick_31"/>
    <g id="ytick_32"/>
    <g id="text_13">
     <!-- MAE -->
     <defs>
      <path d="M 9.8125 72.90625 
L 24.515625 72.90625 
L 43.109375 23.296875 
L 61.8125 72.90625 
L 76.515625 72.90625 
L 76.515625 0 
L 66.890625 0 
L 66.890625 64.015625 
L 48.09375 14.015625 
L 38.1875 14.015625 
L 19.390625 64.015625 
L 19.390625 0 
L 9.8125 0 
z
" id="DejaVuSans-77"/>
      <path d="M 34.1875 63.1875 
L 20.796875 26.90625 
L 47.609375 26.90625 
z
M 28.609375 72.90625 
L 39.796875 72.90625 
L 67.578125 0 
L 57.328125 0 
L 50.6875 18.703125 
L 17.828125 18.703125 
L 11.1875 0 
L 0.78125 0 
z
" id="DejaVuSans-65"/>
     </defs>
     <g style="fill:#262626;" transform="translate(30.981563 198.70875)rotate(-90)scale(0.18 -0.18)">
      <use xlink:href="#DejaVuSans-77"/>
      <use x="86.279297" xlink:href="#DejaVuSans-65"/>
      <use x="154.6875" xlink:href="#DejaVuSans-69"/>
     </g>
    </g>
   </g>
   <g id="line2d_1">
    <path clip-path="url(#p974e5bab03)" d="M 116.970705 -1 
L 117.139979 44.829548 
L 117.393742 29.74847 
L 117.647506 53.423951 
L 117.901269 50.266153 
L 118.155032 60.210292 
L 118.408795 57.698692 
L 118.916322 80.776455 
L 119.170085 81.020033 
L 119.677612 73.752893 
L 120.185138 58.015991 
L 120.438901 60.279833 
L 120.692665 67.119634 
L 120.946428 67.143617 
L 121.453954 56.668364 
L 121.707717 56.167071 
L 121.961481 57.039546 
L 122.469007 55.668582 
L 122.72277 54.625858 
L 122.976534 56.104814 
L 123.230297 58.880983 
L 123.737823 56.512507 
L 123.991587 56.98786 
L 124.24535 55.993333 
L 125.00664 49.316399 
L 125.767929 46.502731 
L 126.275456 46.582174 
L 126.782982 46.308571 
L 127.036746 46.574789 
L 127.544272 45.853058 
L 127.798035 45.789655 
L 128.813088 45.028062 
L 129.066852 44.907807 
L 129.574378 45.026446 
L 130.589431 44.997454 
L 131.350721 44.98591 
L 140.486198 48.615114 
L 143.02383 49.542153 
L 145.561463 50.219628 
L 149.367911 50.975652 
L 162.5636 53.34484 
L 165.862522 54.227478 
L 169.161444 55.359602 
L 172.967893 56.90433 
L 176.774342 58.672017 
L 180.58079 60.6931 
L 185.148529 63.381304 
L 192.2539 67.865092 
L 211.286143 79.967482 
L 218.645277 84.357467 
L 224.481832 87.593329 
L 229.557097 90.170975 
L 234.378598 92.384576 
L 239.2001 94.351462 
L 244.021602 96.070663 
L 249.35063 97.695713 
L 249.604393 160.084094 
L 249.858156 154.455443 
L 250.619446 201.545537 
L 250.873209 213.638401 
L 251.126973 201.192322 
L 251.380736 210.440382 
L 251.634499 213.867836 
L 251.888262 190.768223 
L 252.142026 181.774475 
L 252.395789 184.846746 
L 252.649552 183.937217 
L 252.903315 181.805008 
L 253.157079 181.41121 
L 253.410842 182.529417 
L 253.664605 182.653979 
L 254.679658 174.725868 
L 255.187185 176.708023 
L 255.440948 176.906612 
L 255.694711 176.697987 
L 256.202237 178.546409 
L 256.456001 178.152284 
L 256.963527 178.139128 
L 257.471054 179.230154 
L 257.97858 179.061507 
L 258.486107 180.429512 
L 258.993633 180.274198 
L 259.247396 180.613645 
L 259.50116 180.415623 
L 260.008686 180.942006 
L 260.262449 181.087088 
L 260.516213 181.372296 
L 260.769976 181.438818 
L 261.023739 181.722068 
L 261.531266 181.918732 
L 262.038792 182.204108 
L 262.546319 182.541347 
L 263.053845 182.838125 
L 263.561372 183.118648 
L 264.830188 183.910302 
L 268.8904 186.186043 
L 271.935559 187.60327 
L 274.980718 188.783676 
L 278.025877 189.748377 
L 281.324799 190.56744 
L 284.369958 191.157774 
L 287.415117 191.609401 
L 291.729092 192.058531 
L 296.804357 192.398725 
L 305.178544 192.687443 
L 319.389286 192.851707 
L 465.810678 193.50738 
L 496.008504 193.735375 
L 503.875165 193.794167 
L 518.593433 193.9261 
L 521.638592 193.953296 
L 526.96762 194.00315 
L 573.152531 194.417643 
L 622.636364 194.82606 
L 622.636364 194.82606 
" style="fill:none;stroke:#4c72b0;stroke-linecap:round;stroke-width:2.25;"/>
   </g>
   <g id="line2d_2">
    <path clip-path="url(#p974e5bab03)" d="M 117.006508 -1 
L 117.393742 48.621217 
L 117.647506 49.902361 
L 117.901269 59.851982 
L 118.155032 55.150958 
L 118.662559 69.375777 
L 118.916322 74.72934 
L 119.170085 69.063663 
L 119.423848 57.253155 
L 119.677612 60.993234 
L 119.931375 70.916265 
L 120.438901 56.216102 
L 120.692665 58.53656 
L 120.946428 56.306914 
L 121.200191 55.079902 
L 121.453954 59.048696 
L 121.707717 57.187022 
L 121.961481 56.942895 
L 122.469007 47.435397 
L 122.72277 45.622369 
L 122.976534 44.946967 
L 123.230297 46.516552 
L 123.48406 46.554614 
L 123.737823 46.155762 
L 124.24535 44.135422 
L 124.499113 44.962473 
L 124.752876 46.234565 
L 125.00664 46.520421 
L 125.260403 46.261545 
L 126.021693 49.367306 
L 126.275456 49.925725 
L 126.529219 51.236623 
L 126.782982 51.159782 
L 127.544272 51.96509 
L 127.798035 51.996531 
L 128.051799 52.333868 
L 128.305562 52.464998 
L 128.813088 53.759371 
L 129.066852 54.130465 
L 130.081905 58.564451 
L 130.335668 59.441394 
L 130.843194 60.048409 
L 131.096958 60.553573 
L 132.8733 70.86966 
L 135.157169 89.565644 
L 136.172222 94.747445 
L 136.933512 97.432027 
L 137.187275 97.703514 
L 137.694802 98.797453 
L 137.948565 98.774581 
L 138.202328 99.346821 
L 138.456092 99.116589 
L 138.709855 99.570656 
L 138.963618 99.485504 
L 139.471145 99.890525 
L 139.724908 99.598398 
L 139.978671 100.019409 
L 140.232434 99.638195 
L 140.486198 99.885539 
L 140.739961 162.780172 
L 140.993724 166.126432 
L 141.247487 174.697843 
L 141.501251 209.519139 
L 141.755014 180.674451 
L 142.008777 189.831601 
L 142.26254 183.118926 
L 142.516304 191.800877 
L 142.770067 195.515971 
L 143.02383 191.813351 
L 143.277593 191.12846 
L 143.531357 185.635279 
L 143.78512 176.428034 
L 144.038883 179.06143 
L 144.292646 176.310019 
L 145.561463 192.032601 
L 145.815226 190.512036 
L 146.068989 188.23682 
L 146.322752 190.15182 
L 146.576516 189.640475 
L 147.084042 192.45723 
L 147.337805 191.215874 
L 147.591569 190.952367 
L 147.845332 191.894138 
L 148.099095 192.15302 
L 148.352858 190.255262 
L 148.606621 198.182731 
L 148.860385 197.82146 
L 149.114148 193.501034 
L 149.367911 193.700533 
L 149.621674 192.80005 
L 149.875438 196.049547 
L 150.129201 194.932853 
L 150.382964 197.442146 
L 150.636727 196.029615 
L 150.890491 196.463384 
L 151.144254 195.152208 
L 151.398017 195.365563 
L 151.65178 199.359205 
L 151.905544 196.915137 
L 152.41307 195.718443 
L 152.666833 195.379908 
L 153.17436 198.706718 
L 153.428123 195.799837 
L 153.681886 199.468438 
L 153.93565 195.603276 
L 154.189413 199.431233 
L 154.443176 196.396521 
L 154.696939 198.400018 
L 154.950703 197.601151 
L 155.204466 197.826879 
L 156.980809 198.179819 
L 157.234572 198.806519 
L 157.488335 197.264709 
L 157.742098 200.527857 
L 157.995862 196.710709 
L 158.249625 200.137896 
L 158.503388 198.616565 
L 158.757151 197.930336 
L 159.010915 200.984145 
L 159.264678 197.236397 
L 159.518441 200.962782 
L 159.772204 198.879314 
L 160.025968 198.699418 
L 160.279731 201.627776 
L 160.533494 197.978589 
L 160.787257 200.878461 
L 161.041021 200.463776 
L 161.294784 198.531197 
L 161.548547 202.261826 
L 161.80231 199.816815 
L 162.056073 199.347523 
L 162.309837 202.798748 
L 162.5636 199.907252 
L 162.817363 200.040263 
L 163.071126 203.228514 
L 163.32489 200.548437 
L 163.578653 200.357483 
L 163.832416 203.706369 
L 164.086179 201.133183 
L 164.339943 200.636676 
L 164.593706 204.065827 
L 165.101232 200.849213 
L 165.354996 203.384306 
L 165.608759 204.490548 
L 165.862522 201.793455 
L 166.116285 201.584246 
L 166.370049 204.281699 
L 166.623812 205.325687 
L 166.877575 202.998556 
L 167.131338 202.377441 
L 167.385102 205.251132 
L 167.638865 206.062887 
L 167.892628 203.820097 
L 168.146391 203.582714 
L 168.400155 205.871318 
L 168.653918 207.098564 
L 168.907681 206.172982 
L 169.161444 204.46714 
L 169.415208 204.242858 
L 169.922734 208.24778 
L 170.176497 207.947721 
L 170.430261 205.970645 
L 170.684024 205.713888 
L 171.19155 209.358401 
L 171.445314 209.347974 
L 171.95284 206.825854 
L 172.206603 207.547598 
L 172.71413 210.81074 
L 172.967893 210.480441 
L 173.221656 208.956877 
L 173.47542 208.355356 
L 173.729183 208.885807 
L 174.490473 212.746757 
L 174.744236 212.296324 
L 175.251762 210.413109 
L 175.505525 210.453085 
L 175.759289 211.378502 
L 176.520578 215.125231 
L 176.774342 215.067767 
L 177.535631 213.20237 
L 177.789395 213.063807 
L 178.043158 213.169482 
L 178.296921 213.54983 
L 178.804448 215.472464 
L 179.311974 217.298067 
L 179.819501 218.168743 
L 180.073264 218.391387 
L 180.327027 218.439242 
L 180.58079 218.603694 
L 181.088317 219.321375 
L 181.34208 219.41586 
L 181.849607 218.970485 
L 182.86466 219.645004 
L 183.372186 220.869786 
L 183.879713 220.433866 
L 184.387239 221.315247 
L 184.641002 221.497864 
L 184.894766 221.916494 
L 185.148529 222.102347 
L 185.402292 221.798503 
L 185.656055 222.145985 
L 185.909819 222.75582 
L 186.163582 222.223914 
L 186.671108 220.570187 
L 186.924872 220.255663 
L 187.178635 220.757948 
L 187.432398 220.928872 
L 187.686161 221.850985 
L 187.939925 223.617068 
L 188.954977 221.19521 
L 189.208741 222.095722 
L 189.462504 223.502369 
L 189.716267 223.36726 
L 189.97003 222.105549 
L 190.223794 221.569262 
L 190.477557 222.134451 
L 190.73132 223.727449 
L 190.985083 223.284438 
L 191.238847 222.120962 
L 191.49261 221.680548 
L 191.746373 223.192262 
L 192.000136 223.296558 
L 192.2539 222.147043 
L 192.507663 222.026085 
L 192.761426 223.081229 
L 193.015189 223.254286 
L 193.268953 221.563595 
L 193.522716 222.660883 
L 193.776479 223.264511 
L 194.030242 221.731301 
L 194.537769 223.287045 
L 194.791532 221.619344 
L 195.045295 221.948733 
L 195.299059 223.283822 
L 195.552822 221.797334 
L 195.806585 222.259857 
L 196.060348 222.130058 
L 196.314112 221.364779 
L 196.567875 222.900464 
L 196.821638 221.464798 
L 197.075401 222.131515 
L 197.329165 222.131553 
L 197.582928 221.264604 
L 197.836691 222.259543 
L 198.090454 220.852405 
L 198.344218 222.11161 
L 198.597981 220.841147 
L 198.851744 221.88636 
L 199.105507 220.843448 
L 199.359271 221.659014 
L 199.613034 220.68867 
L 199.866797 221.143727 
L 200.12056 220.652336 
L 200.374324 220.7833 
L 200.628087 220.573959 
L 200.88185 220.883316 
L 201.135613 220.363317 
L 201.389377 221.036885 
L 201.64314 220.085696 
L 201.896903 221.016541 
L 202.150666 220.035557 
L 202.404429 220.97635 
L 202.658193 219.730117 
L 202.911956 220.561037 
L 203.165719 219.581685 
L 203.673246 220.09499 
L 203.927009 219.350818 
L 204.180772 220.283053 
L 204.434535 219.345462 
L 204.688299 219.545633 
L 204.942062 219.921463 
L 205.449588 219.714786 
L 205.703352 218.874666 
L 205.957115 218.746423 
L 206.210878 218.989555 
L 206.464641 218.921441 
L 206.718405 219.393572 
L 206.972168 219.319181 
L 207.225931 218.48522 
L 207.479694 219.780977 
L 207.733458 219.655028 
L 207.987221 220.402809 
L 208.240984 220.153859 
L 208.494747 219.663073 
L 208.748511 219.440093 
L 209.5098 217.574412 
L 209.763564 216.59989 
L 210.017327 216.282966 
L 210.27109 217.026196 
L 210.524853 216.764041 
L 210.778617 219.278855 
L 211.03238 218.821586 
L 211.539906 220.233894 
L 212.047433 224.1255 
L 212.554959 221.849204 
L 213.062486 223.19239 
L 213.316249 222.754588 
L 213.823776 222.677938 
L 214.331302 221.35613 
L 214.585065 221.147007 
L 215.092592 220.16751 
L 215.346355 219.891394 
L 216.868934 217.358728 
L 217.376461 216.836052 
L 217.883987 216.277521 
L 219.152804 215.218316 
L 221.18291 213.30173 
L 224.481832 210.017329 
L 227.780754 206.843004 
L 230.825913 204.198043 
L 234.124835 201.607291 
L 237.169994 199.472722 
L 239.2001 198.202578 
L 240.976443 197.367042 
L 242.245259 197.84025 
L 242.499022 198.242352 
L 242.752785 198.18016 
L 243.260312 198.860741 
L 244.021602 199.388703 
L 244.275365 199.40222 
L 246.305471 198.593189 
L 246.559234 198.700997 
L 246.812997 199.383324 
L 247.320524 201.897444 
L 247.574287 203.800013 
L 248.081814 205.363849 
L 248.58934 206.771292 
L 248.843103 207.132412 
L 249.35063 207.417799 
L 250.619446 207.511717 
L 251.380736 207.027843 
L 253.410842 205.500192 
L 256.709764 203.474148 
L 264.322661 199.279201 
L 268.382873 197.457692 
L 272.950612 195.687755 
L 273.965665 195.400211 
L 274.219428 196.520358 
L 274.473191 196.48217 
L 274.726954 198.588412 
L 274.980718 199.693637 
L 275.488244 200.721916 
L 275.742007 200.755052 
L 276.503297 201.883365 
L 276.75706 202.134993 
L 277.010824 202.05841 
L 277.264587 201.864997 
L 277.51835 201.849949 
L 278.025877 202.186995 
L 278.27964 202.10324 
L 279.294693 202.173056 
L 280.055983 201.932198 
L 281.324799 201.740882 
L 297.565646 198.484616 
L 305.178544 197.205632 
L 312.537678 196.143949 
L 322.688208 194.924294 
L 333.853791 193.865042 
L 345.5269 193.047604 
L 347.810769 192.897191 
L 348.318296 194.886245 
L 349.079585 198.317111 
L 350.094638 200.195865 
L 350.348401 200.337288 
L 351.363454 200.382563 
L 352.124744 200.641049 
L 352.632271 200.568338 
L 354.91614 200.692084 
L 357.707536 200.349332 
L 365.574196 199.080917 
L 371.410751 198.461367 
L 379.023648 197.85166 
L 390.442994 197.16384 
L 401.86234 196.687797 
L 411.505344 196.439252 
L 422.417163 196.325804 
L 425.462322 196.318762 
L 425.716085 196.484883 
L 425.969849 197.275281 
L 426.223612 197.532906 
L 426.731138 199.282183 
L 427.238665 199.8508 
L 427.492428 200.033048 
L 427.746191 200.470955 
L 428.253718 200.427686 
L 428.761244 200.352852 
L 429.015008 200.445636 
L 429.268771 200.265251 
L 432.821456 200.725541 
L 433.582746 200.912264 
L 436.374142 201.161476 
L 439.419301 201.184192 
L 454.391332 200.942667 
L 473.169812 201.059879 
L 516.309564 201.794895 
L 538.640729 202.451923 
L 541.432125 202.570978 
L 541.685888 202.440959 
L 542.447178 204.461541 
L 542.954705 206.697661 
L 543.715994 208.553046 
L 544.223521 208.719716 
L 544.477284 208.739521 
L 544.731047 208.570688 
L 545.492337 208.733684 
L 546.253627 208.748932 
L 546.50739 208.738663 
L 547.522443 209.054969 
L 548.283733 209.218427 
L 549.298786 209.355089 
L 553.358998 209.426551 
L 566.300923 209.045361 
L 577.974032 209.058928 
L 603.096594 209.4307 
L 622.636364 209.887526 
L 622.636364 209.887526 
" style="fill:none;stroke:#dd8452;stroke-linecap:round;stroke-width:2.25;"/>
   </g>
   <g id="line2d_3">
    <path clip-path="url(#p974e5bab03)" d="M 117.006511 -1 
L 117.393742 48.620824 
L 117.647506 49.901971 
L 117.901269 59.851784 
L 118.155032 55.151381 
L 118.662559 69.375952 
L 118.916322 74.729121 
L 119.170085 69.063685 
L 119.423848 57.253095 
L 119.677612 60.993379 
L 119.931375 70.916143 
L 120.438901 56.215991 
L 120.692665 58.536589 
L 120.946428 56.307093 
L 121.200191 55.080058 
L 121.453954 59.048871 
L 121.707717 57.187291 
L 121.961481 56.94325 
L 122.469007 47.435589 
L 122.72277 45.622482 
L 122.976534 44.947017 
L 123.230297 46.516778 
L 123.48406 46.554751 
L 123.737823 46.15573 
L 124.24535 44.135428 
L 124.499113 44.96263 
L 124.752876 46.234565 
L 125.00664 46.520538 
L 125.260403 46.261596 
L 126.021693 49.367258 
L 126.275456 49.925793 
L 126.529219 51.236633 
L 126.782982 51.159879 
L 127.544272 51.965231 
L 127.798035 51.996566 
L 128.051799 52.333978 
L 128.305562 52.465117 
L 128.813088 53.759563 
L 129.066852 54.130596 
L 130.081905 58.564747 
L 130.335668 59.443121 
L 130.843194 60.045708 
L 131.096958 60.545765 
L 132.619537 68.725218 
L 134.649643 86.619189 
L 135.410933 91.155753 
L 136.679749 96.178617 
L 137.187275 97.63425 
L 137.441039 97.868434 
L 137.694802 98.617763 
L 137.948565 98.996277 
L 138.202328 99.102545 
L 138.456092 99.722465 
L 138.709855 99.636342 
L 139.217381 100.261825 
L 139.471145 99.991856 
L 139.724908 100.385548 
L 139.978671 100.136991 
L 140.232434 100.287279 
L 140.739961 100.039462 
L 140.993724 161.914677 
L 141.247487 165.532568 
L 141.501251 176.438552 
L 141.755014 222.779116 
L 142.008777 186.175641 
L 142.26254 203.494901 
L 142.516304 181.622625 
L 142.770067 187.033327 
L 143.02383 203.816465 
L 144.038883 182.042672 
L 144.292646 178.433252 
L 144.54641 178.903267 
L 144.800173 181.392261 
L 145.053936 181.780146 
L 145.307699 182.413375 
L 145.815226 191.964614 
L 146.068989 192.520327 
L 146.322752 188.006357 
L 146.830279 191.665056 
L 147.084042 191.617399 
L 147.337805 192.821968 
L 147.591569 191.451238 
L 147.845332 192.32622 
L 148.099095 191.648079 
L 148.352858 192.745281 
L 148.606621 192.823555 
L 148.860385 192.419998 
L 149.114148 193.22525 
L 149.367911 197.110404 
L 149.621674 195.941107 
L 149.875438 195.577712 
L 150.129201 199.149095 
L 150.382964 195.401757 
L 150.636727 195.632018 
L 150.890491 196.648884 
L 151.144254 196.170064 
L 151.398017 197.670997 
L 151.65178 194.945469 
L 151.905544 196.764435 
L 152.41307 195.419093 
L 152.666833 195.389855 
L 152.920597 195.821604 
L 153.17436 196.65032 
L 153.428123 199.146067 
L 153.681886 199.184744 
L 153.93565 196.489147 
L 154.189413 198.169521 
L 154.443176 196.917507 
L 154.696939 198.670273 
L 154.950703 197.753901 
L 155.204466 197.320653 
L 155.458229 200.016878 
L 155.711992 196.180635 
L 155.965756 200.098615 
L 156.219519 196.557882 
L 156.473282 200.350676 
L 156.727045 196.3963 
L 156.980809 200.418678 
L 157.234572 196.974528 
L 157.488335 199.73972 
L 157.742098 198.106361 
L 157.995862 198.283631 
L 158.249625 200.355691 
L 158.503388 196.941349 
L 158.757151 200.593251 
L 159.264678 197.788825 
L 159.518441 201.302375 
L 159.772204 198.741778 
L 160.025968 198.045979 
L 160.279731 201.571282 
L 160.533494 199.122145 
L 160.787257 198.289645 
L 161.041021 201.652253 
L 161.294784 200.753828 
L 161.548547 198.317659 
L 161.80231 199.685863 
L 162.056073 202.364979 
L 162.309837 199.503709 
L 162.5636 198.934401 
L 163.071126 202.703627 
L 163.32489 201.370248 
L 163.578653 199.353134 
L 163.832416 199.658354 
L 164.339943 203.138193 
L 164.593706 203.114783 
L 165.354996 200.174216 
L 165.608759 200.120195 
L 166.370049 202.3373 
L 166.623812 202.573284 
L 166.877575 202.51868 
L 167.385102 202.22883 
L 167.892628 201.213346 
L 168.146391 201.035415 
L 168.400155 201.447083 
L 168.907681 203.548111 
L 169.161444 204.677629 
L 169.415208 204.406763 
L 169.668971 202.638474 
L 169.922734 201.715489 
L 170.430261 205.021507 
L 170.937787 201.872632 
L 171.19155 204.37595 
L 171.445314 204.608482 
L 171.699077 202.066546 
L 171.95284 204.649967 
L 172.206603 203.165379 
L 172.460367 203.481838 
L 172.71413 204.168191 
L 172.967893 202.568297 
L 173.221656 204.838594 
L 173.47542 202.44224 
L 173.729183 204.502077 
L 173.982946 203.195437 
L 174.236709 203.133477 
L 174.490473 204.622345 
L 174.744236 202.114762 
L 174.997999 204.307469 
L 175.251762 203.909469 
L 175.505525 202.139633 
L 175.759289 204.051781 
L 176.013052 203.863799 
L 176.266815 202.042874 
L 176.774342 204.418339 
L 177.281868 201.965537 
L 177.789395 204.374994 
L 178.043158 202.09718 
L 178.296921 201.93439 
L 178.550684 201.302825 
L 178.804448 204.116574 
L 179.058211 203.207241 
L 179.565737 202.605997 
L 179.819501 202.716904 
L 180.073264 203.869194 
L 180.327027 202.238254 
L 180.58079 202.602787 
L 181.088317 200.950574 
L 181.34208 199.309902 
L 181.595843 198.80614 
L 181.849607 198.786749 
L 182.10337 202.882842 
L 182.357133 204.400013 
L 182.610896 204.261774 
L 182.86466 212.222882 
L 183.118423 209.336561 
L 183.372186 213.855103 
L 183.625949 213.881679 
L 183.879713 214.788015 
L 184.133476 217.397331 
L 184.387239 215.340583 
L 184.641002 218.381114 
L 184.894766 215.344509 
L 185.148529 215.028935 
L 185.402292 210.43132 
L 185.656055 209.304488 
L 186.163582 204.310688 
L 186.671108 201.698247 
L 186.924872 200.397477 
L 187.178635 199.780442 
L 187.939925 198.71661 
L 188.954977 197.603203 
L 189.716267 197.328064 
L 190.223794 197.378981 
L 190.985083 197.642092 
L 191.49261 197.683011 
L 192.2539 197.811212 
L 193.015189 197.916091 
L 196.821638 197.937707 
L 204.434535 197.800144 
L 263.053845 196.316409 
L 263.307608 196.370368 
L 263.815135 196.286936 
L 264.576425 196.334896 
L 265.337714 196.269991 
L 265.591478 196.399528 
L 266.099004 196.174616 
L 266.606531 196.359815 
L 267.114057 196.220176 
L 267.36782 196.328801 
L 267.875347 196.231127 
L 268.12911 196.292523 
L 268.382873 196.197557 
L 268.636637 196.286031 
L 268.8904 196.192568 
L 270.159216 196.238909 
L 271.935559 196.113668 
L 272.443085 196.38471 
L 272.696848 196.132701 
L 272.950612 196.085214 
L 273.204375 196.323521 
L 273.458138 196.101607 
L 274.980718 196.136852 
L 276.249534 196.158787 
L 276.503297 196.023391 
L 276.75706 196.537589 
L 277.010824 196.675002 
L 277.264587 195.796565 
L 277.51835 196.566466 
L 277.772113 195.965725 
L 278.025877 196.532721 
L 278.27964 196.234238 
L 278.787166 196.474256 
L 279.04093 196.42382 
L 279.294693 196.50369 
L 281.832325 196.097958 
L 282.593615 195.959173 
L 282.847378 196.181817 
L 283.101141 195.73414 
L 283.354905 196.864391 
L 283.608668 195.632145 
L 283.862431 196.493779 
L 284.116194 196.827975 
L 284.877484 196.356259 
L 285.638774 197.070626 
L 285.892537 196.956722 
L 286.1463 196.66783 
L 286.90759 196.516056 
L 287.161353 196.331061 
L 287.415117 196.404776 
L 287.66888 196.181248 
L 287.922643 196.225816 
L 288.176406 196.100722 
L 288.43017 196.178015 
L 288.683933 196.053014 
L 289.698986 196.01333 
L 290.460276 195.961333 
L 290.967802 196.001421 
L 291.221565 195.931763 
L 291.475329 196.237495 
L 291.729092 194.818589 
L 291.982855 197.382012 
L 292.236618 197.22408 
L 292.490382 196.573655 
L 292.744145 196.435627 
L 292.997908 197.454213 
L 293.251671 196.755794 
L 293.505435 197.569083 
L 293.759198 197.618603 
L 294.012961 197.482161 
L 294.266724 197.917132 
L 294.520488 197.453006 
L 294.774251 197.354133 
L 295.028014 197.425634 
L 295.53554 196.723362 
L 296.29683 196.466582 
L 296.804357 196.245823 
L 300.610805 195.977951 
L 300.864569 196.04001 
L 301.118332 195.964365 
L 301.625858 196.03142 
L 302.133385 195.956272 
L 303.402201 195.976938 
L 304.671017 195.810777 
L 304.924781 196.266215 
L 305.178544 195.144457 
L 305.68607 196.501546 
L 305.939834 196.155583 
L 306.193597 196.145082 
L 306.44736 196.741908 
L 306.701123 196.339438 
L 307.20865 196.877086 
L 307.462413 196.535626 
L 307.716176 196.893289 
L 307.96994 196.511716 
L 308.223703 196.71149 
L 308.477466 196.376923 
L 308.731229 196.463857 
L 309.238756 196.14871 
L 309.492519 196.199599 
L 310.253809 195.954195 
L 310.761335 195.930775 
L 311.268862 196.042125 
L 311.522625 195.650079 
L 311.776388 196.932016 
L 312.030151 196.778372 
L 312.283915 195.709792 
L 312.537678 196.591819 
L 313.045204 196.187556 
L 313.298968 196.835052 
L 313.552731 196.57278 
L 314.060257 196.968549 
L 314.314021 196.585488 
L 314.567784 196.917091 
L 314.821547 196.483699 
L 315.07531 196.698291 
L 315.329074 196.354127 
L 315.582837 196.399644 
L 315.8366 196.300806 
L 316.090363 196.072427 
L 317.35918 196.078969 
L 317.612943 195.929109 
L 317.866706 195.944774 
L 318.120469 196.183024 
L 318.374233 194.824973 
L 318.627996 196.58266 
L 318.881759 197.069644 
L 319.135522 196.827277 
L 319.643049 197.061711 
L 319.896812 197.726579 
L 320.150575 197.301225 
L 320.404339 198.393724 
L 320.658102 197.852749 
L 320.911865 198.302163 
L 321.165628 197.896438 
L 321.419392 198.02577 
L 321.673155 197.577511 
L 321.926918 197.541462 
L 322.180681 197.03962 
L 322.434444 197.052864 
L 322.688208 196.616711 
L 322.941971 196.459442 
L 323.195734 196.484125 
L 324.46455 196.113842 
L 325.733367 196.087855 
L 332.077448 195.901018 
L 332.331211 196.173434 
L 332.584974 195.175575 
L 332.838738 195.588163 
L 333.092501 196.651803 
L 333.346264 195.826097 
L 333.853791 196.80191 
L 334.107554 196.807944 
L 334.361317 196.555022 
L 334.61508 196.705994 
L 334.868844 197.093849 
L 335.122607 196.980173 
L 335.37637 196.658028 
L 335.630133 196.896994 
L 335.883896 196.768904 
L 336.13766 196.423012 
L 336.391423 196.595515 
L 336.645186 196.257915 
L 336.898949 196.319954 
L 337.152713 196.096927 
L 337.406476 196.252442 
L 337.660239 196.053572 
L 337.914002 196.039435 
L 338.167766 196.189789 
L 338.421529 196.190691 
L 339.182819 195.949389 
L 340.197872 196.128664 
L 340.451635 195.842058 
L 340.705398 196.238428 
L 340.959161 195.694503 
L 341.212925 196.404795 
L 341.720451 196.38576 
L 342.989267 196.315165 
L 343.243031 196.102602 
L 343.496794 196.208056 
L 343.750557 196.577909 
L 344.00432 195.921551 
L 345.273137 196.333425 
L 345.5269 196.234758 
L 345.780663 195.900845 
L 346.034426 197.25634 
L 346.28819 196.954577 
L 346.541953 195.988302 
L 346.795716 196.677316 
L 347.049479 196.874572 
L 347.303243 196.338548 
L 347.810769 197.05223 
L 348.064532 196.693866 
L 348.318296 196.976763 
L 348.825822 196.780383 
L 349.079585 196.812054 
L 349.333348 196.601008 
L 349.840875 196.493458 
L 350.094638 196.217489 
L 350.602165 196.271352 
L 351.363454 196.103142 
L 351.870981 196.163367 
L 352.124744 195.857997 
L 352.378507 196.589082 
L 352.632271 195.887093 
L 352.886034 196.36065 
L 353.139797 196.464354 
L 353.39356 196.051299 
L 353.647324 196.466008 
L 353.901087 196.49882 
L 354.15485 196.273003 
L 354.662377 196.764844 
L 356.946246 196.038597 
L 357.200009 196.737226 
L 357.453772 197.801762 
L 357.707536 197.762793 
L 358.468825 198.427874 
L 358.722589 197.768066 
L 358.976352 198.201732 
L 359.230115 199.538159 
L 359.483878 199.944807 
L 359.737642 199.397689 
L 359.991405 199.263207 
L 360.245168 199.524348 
L 360.498931 199.568762 
L 361.767748 197.140924 
L 362.275274 196.746474 
L 362.7828 196.706079 
L 363.036564 196.712492 
L 363.797853 196.473457 
L 366.081723 196.298363 
L 367.858065 196.277647 
L 371.410751 196.170587 
L 382.576334 196.024564 
L 382.830097 196.142494 
L 383.337623 195.984975 
L 383.591387 196.082046 
L 383.84515 195.894823 
L 384.098913 196.49086 
L 384.352676 195.604455 
L 384.860203 196.555422 
L 385.113966 195.975832 
L 385.367729 196.660775 
L 385.621493 196.149791 
L 385.875256 196.713806 
L 386.129019 196.378753 
L 386.382782 196.741616 
L 386.636546 196.518029 
L 387.144072 196.653285 
L 387.397835 196.412769 
L 387.651599 196.586053 
L 388.159125 196.259716 
L 388.412888 196.325886 
L 389.681704 196.092715 
L 390.950521 196.122797 
L 391.204284 196.061133 
L 391.458047 196.164426 
L 391.71181 195.636628 
L 391.965574 197.294485 
L 392.219337 195.817197 
L 393.488153 196.985255 
L 393.99568 197.668685 
L 394.503206 197.686841 
L 395.010733 197.456425 
L 396.533312 196.450744 
L 396.787075 196.313019 
L 404.146209 196.16379 
L 404.399973 195.973945 
L 404.653736 197.384328 
L 404.907499 197.51354 
L 405.161262 197.444496 
L 405.415026 197.211215 
L 405.668789 196.626976 
L 405.922552 197.413746 
L 406.176315 197.639305 
L 406.430079 197.359644 
L 406.683842 198.290903 
L 406.937605 197.936714 
L 407.191368 197.914716 
L 407.445132 198.207145 
L 407.698895 197.773984 
L 408.206421 197.682848 
L 408.713948 196.945998 
L 409.221474 196.721033 
L 410.236527 196.524198 
L 413.281686 196.297139 
L 415.311792 196.311842 
L 415.819319 196.244078 
L 416.326845 196.25383 
L 418.356951 196.18371 
L 420.133294 196.246205 
L 420.387057 196.122726 
L 420.64082 196.535571 
L 420.894584 195.721523 
L 421.40211 196.119683 
L 421.655873 196.588275 
L 421.909637 196.566868 
L 422.1634 196.220404 
L 422.670926 196.77706 
L 423.178453 196.395828 
L 423.685979 196.76685 
L 424.447269 196.385579 
L 424.954796 196.497143 
L 426.477375 196.354647 
L 426.731138 196.141459 
L 427.238665 196.433803 
L 427.492428 196.088747 
L 427.746191 196.370883 
L 427.999955 196.316964 
L 428.253718 196.053112 
L 428.507481 196.895775 
L 428.761244 196.572822 
L 429.015008 196.696949 
L 429.268771 196.591016 
L 429.522534 196.325996 
L 429.776297 196.433941 
L 430.03006 196.756006 
L 430.283824 196.745028 
L 430.537587 196.527982 
L 430.79135 196.522905 
L 431.298877 196.728948 
L 432.567693 196.442533 
L 433.328983 196.347887 
L 433.582746 196.198759 
L 433.836509 196.456924 
L 434.090272 196.091426 
L 434.344036 196.853226 
L 434.597799 196.463842 
L 435.105325 196.718215 
L 435.866615 196.407479 
L 436.374142 196.758876 
L 437.389195 196.616342 
L 438.404248 196.475471 
L 438.658011 196.260848 
L 438.911774 196.390781 
L 439.165537 196.34755 
L 439.419301 196.167047 
L 439.673064 197.795726 
L 440.18059 196.735093 
L 440.434354 197.255576 
L 440.688117 197.166816 
L 440.94188 198.312601 
L 441.195643 198.601683 
L 441.449407 198.289495 
L 441.70317 198.618742 
L 441.956933 199.190626 
L 442.210696 199.289457 
L 442.46446 198.775333 
L 442.718223 198.669707 
L 442.971986 198.860717 
L 443.479512 197.872362 
L 443.733276 197.800984 
L 443.987039 197.256509 
L 444.494565 196.937343 
L 447.285961 196.574481 
L 449.316067 196.558804 
L 452.107463 196.445189 
L 452.614989 196.458746 
L 454.898859 196.461431 
L 455.406385 196.433364 
L 456.421438 196.435154 
L 457.436491 196.414098 
L 461.496703 196.337519 
L 461.750466 196.498102 
L 462.257993 196.300414 
L 462.511756 196.494224 
L 463.019282 196.243793 
L 463.273046 196.777482 
L 463.526809 196.065712 
L 464.034335 196.402949 
L 464.288099 196.68893 
L 464.541862 196.757651 
L 465.049388 196.56339 
L 467.333258 196.483122 
L 467.840784 196.391289 
L 468.348311 196.564412 
L 468.602074 196.304899 
L 468.855837 196.628871 
L 469.1096 196.168753 
L 469.363363 196.69184 
L 469.87089 196.519306 
L 470.378416 196.402251 
L 470.885943 196.579794 
L 471.393469 196.608115 
L 471.647233 196.240808 
L 471.900996 196.936622 
L 472.916049 196.725423 
L 473.423575 196.583707 
L 475.199918 196.639826 
L 475.453681 196.715151 
L 475.961208 196.413481 
L 476.214971 196.720176 
L 476.468734 196.176424 
L 476.722498 196.747115 
L 477.737551 196.816991 
L 478.752604 196.654477 
L 479.26013 196.534852 
L 480.02142 196.771147 
L 480.528946 196.407766 
L 480.78271 196.790325 
L 481.290236 196.373762 
L 481.543999 196.750269 
L 481.797763 196.694265 
L 482.051526 196.504331 
L 482.559052 196.711976 
L 482.812815 196.355881 
L 483.066579 197.237859 
L 483.320342 196.909714 
L 483.574105 197.067969 
L 484.081632 196.578798 
L 484.335395 197.016481 
L 484.842921 196.765999 
L 485.350448 197.074876 
L 485.857974 196.805255 
L 486.365501 196.926759 
L 488.141844 196.592376 
L 488.903133 196.618967 
L 489.156897 196.327354 
L 489.41066 197.409812 
L 489.664423 197.341942 
L 489.918186 196.579275 
L 490.17195 197.345342 
L 490.679476 196.864831 
L 490.933239 197.017807 
L 491.440766 197.737398 
L 491.694529 197.646722 
L 492.202056 197.35214 
L 492.709582 197.533465 
L 493.217109 197.053804 
L 493.724635 196.954734 
L 493.978398 196.738691 
L 494.232162 196.817961 
L 494.485925 196.680811 
L 494.739688 196.772475 
L 494.993451 196.678835 
L 495.247215 196.769784 
L 495.500978 196.662847 
L 496.008504 196.723963 
L 496.516031 196.665701 
L 499.814953 196.566328 
L 500.322479 196.64346 
L 500.576243 196.475867 
L 500.830006 196.901211 
L 501.083769 196.463741 
L 501.591296 196.552035 
L 502.098822 196.825653 
L 502.352585 196.891841 
L 502.606349 196.827123 
L 503.113875 196.487045 
L 503.875165 196.851643 
L 504.128928 196.90544 
L 504.890218 196.678043 
L 505.397744 196.873264 
L 505.651508 196.476722 
L 505.905271 196.901255 
L 506.159034 196.807275 
L 506.412797 196.575096 
L 506.666561 196.66446 
L 506.920324 196.876611 
L 507.42785 196.621347 
L 507.681614 197.005734 
L 507.935377 196.344977 
L 508.18914 196.687046 
L 509.204193 196.742785 
L 509.965483 196.756635 
L 510.980536 196.930096 
L 511.234299 196.855245 
L 511.488062 196.658363 
L 511.741825 196.720992 
L 511.995589 196.907702 
L 512.249352 196.594575 
L 512.503115 196.674125 
L 512.756878 196.890463 
L 513.010642 196.421515 
L 513.264405 197.170242 
L 513.771931 196.984045 
L 515.040748 197.127116 
L 516.81709 196.943809 
L 517.324617 196.618086 
L 517.832143 196.849739 
L 518.085907 196.954415 
L 518.593433 196.61591 
L 519.10096 197.057768 
L 519.354723 196.548651 
L 520.623539 196.964769 
L 521.131066 196.728181 
L 521.638592 196.984958 
L 521.892355 196.569767 
L 522.146119 197.153609 
L 523.668698 196.730784 
L 524.683751 196.951858 
L 525.191277 196.903386 
L 525.445041 196.832466 
L 525.698804 197.002181 
L 525.952567 196.320836 
L 526.20633 197.43012 
L 526.460094 196.608292 
L 526.713857 197.322476 
L 526.96762 196.799621 
L 527.221383 197.468453 
L 527.72891 197.193053 
L 527.982673 197.688936 
L 528.236436 197.458347 
L 528.4902 197.426527 
L 528.743963 197.637221 
L 528.997726 197.370742 
L 529.251489 197.525418 
L 529.505253 197.300224 
L 529.759016 197.285915 
L 530.266542 197.046742 
L 530.520306 196.907587 
L 530.774069 196.952564 
L 531.281595 196.848202 
L 532.042885 196.86964 
L 534.834281 196.878301 
L 535.088044 196.651072 
L 535.341807 196.789903 
L 535.595571 197.073763 
L 535.849334 196.658297 
L 536.103097 196.902368 
L 537.371913 196.828591 
L 537.625676 197.092879 
L 537.87944 196.349029 
L 538.133203 196.884942 
L 538.386966 196.683222 
L 538.894493 197.345634 
L 539.148256 196.986892 
L 539.402019 197.102308 
L 539.655782 197.353192 
L 540.163309 197.096395 
L 540.417072 197.312159 
L 540.670835 197.281623 
L 541.178362 197.077248 
L 541.939652 197.043946 
L 542.447178 196.921435 
L 543.462231 196.880825 
L 543.715994 196.75777 
L 543.969758 196.928278 
L 544.223521 196.937213 
L 544.477284 196.672487 
L 544.731047 197.157958 
L 544.984811 196.653977 
L 545.999864 197.050339 
L 546.253627 197.034259 
L 546.50739 196.903572 
L 546.761153 196.921932 
L 547.014917 197.127126 
L 547.522443 196.914153 
L 547.776206 197.16155 
L 548.02997 196.630992 
L 548.283733 197.182521 
L 549.552549 197.184857 
L 551.075128 196.940989 
L 551.582655 197.078919 
L 551.836418 196.897395 
L 552.343945 196.960799 
L 552.597708 196.694909 
L 552.851471 198.229357 
L 553.358998 197.896029 
L 553.612761 197.948107 
L 553.866524 198.343559 
L 554.374051 197.756093 
L 554.881577 198.78426 
L 555.389104 198.34888 
L 555.642867 198.410231 
L 555.89663 198.589978 
L 556.150393 198.492925 
L 556.911683 197.588363 
L 557.41921 197.294668 
L 558.180499 197.173656 
L 559.195552 197.181365 
L 559.956842 197.111013 
L 560.971895 197.060766 
L 562.240711 197.088765 
L 563.763291 197.033773 
L 566.80845 197.013573 
L 568.077266 196.946686 
L 569.346082 196.925936 
L 569.853609 196.926703 
L 570.361135 197.071647 
L 570.868662 196.828945 
L 571.122425 197.082721 
L 571.376188 197.059143 
L 571.629951 196.857637 
L 571.883715 197.025561 
L 572.137478 197.044989 
L 572.391241 196.937938 
L 572.898768 197.120149 
L 573.152531 196.628002 
L 573.406294 197.547171 
L 573.660057 197.430249 
L 573.913821 197.045013 
L 574.167584 196.994139 
L 574.421347 197.444782 
L 574.928874 197.159515 
L 575.182637 197.423173 
L 575.4364 197.487293 
L 575.690163 197.224938 
L 576.19769 197.488891 
L 576.705216 197.1937 
L 577.466506 197.171856 
L 578.227796 197.065351 
L 580.257902 197.027123 
L 580.511665 197.099611 
L 581.019191 196.948113 
L 581.272955 197.283934 
L 581.526718 196.565703 
L 581.780481 197.069866 
L 582.034244 196.907861 
L 582.288008 196.912924 
L 582.541771 197.367834 
L 582.795534 197.49652 
L 583.049297 197.208941 
L 583.303061 197.257278 
L 583.556824 197.568226 
L 584.318114 197.384465 
L 584.571877 197.528318 
L 585.58693 197.223314 
L 586.855746 197.200889 
L 587.363273 197.215698 
L 587.870799 196.95444 
L 588.124562 196.973775 
L 588.632089 197.303991 
L 588.885852 197.303215 
L 589.393379 196.986786 
L 589.647142 197.019227 
L 590.154668 197.255947 
L 590.662195 197.173782 
L 590.915958 197.082716 
L 591.423484 197.239927 
L 591.677248 197.130288 
L 592.184774 197.312657 
L 592.438537 196.647452 
L 592.692301 197.500949 
L 592.946064 197.064977 
L 593.199827 197.132593 
L 593.45359 197.660504 
L 593.707354 197.230934 
L 593.961117 197.733308 
L 594.21488 197.383657 
L 594.468643 197.746291 
L 594.722407 197.565012 
L 595.229933 197.716261 
L 595.483696 197.501712 
L 595.73746 197.685474 
L 596.244986 197.419847 
L 596.498749 197.429901 
L 597.006276 197.188264 
L 598.021329 197.226422 
L 599.036382 197.119653 
L 601.320251 197.221386 
L 601.574014 196.935591 
L 601.827778 197.691783 
L 602.081541 197.461493 
L 602.842831 197.466577 
L 603.350357 197.211454 
L 604.619173 197.538813 
L 605.887989 197.253945 
L 606.395516 197.220496 
L 608.171859 197.105857 
L 608.425622 197.730387 
L 608.679385 196.637952 
L 608.933148 198.296354 
L 609.186912 197.550497 
L 609.440675 197.523064 
L 610.455728 198.322891 
L 611.217018 198.582171 
L 611.724544 198.539754 
L 612.232071 198.212147 
L 612.99336 197.535667 
L 613.500887 197.496592 
L 614.008413 197.537127 
L 614.262177 197.451111 
L 614.769703 197.478729 
L 615.023466 197.399665 
L 615.27723 197.451768 
L 615.784756 197.399036 
L 618.829915 197.329825 
L 619.337441 197.362664 
L 619.844968 197.298633 
L 620.606258 197.34591 
L 621.113784 197.256177 
L 622.636364 197.339478 
L 622.636364 197.339478 
" style="fill:none;stroke:#55a868;stroke-linecap:round;stroke-width:2.25;"/>
   </g>
   <g id="line2d_4">
    <path clip-path="url(#p974e5bab03)" d="M 116.738246 -1 
L 117.139979 68.753893 
L 117.647506 82.191148 
L 117.901269 82.552564 
L 118.155032 81.766834 
L 118.408795 74.925266 
L 118.662559 76.996536 
L 118.916322 71.444381 
L 119.170085 78.342575 
L 119.423848 79.728748 
L 119.677612 75.15945 
L 120.185138 76.043416 
L 120.438901 79.731877 
L 120.692665 81.368223 
L 120.946428 84.644088 
L 121.453954 80.03006 
L 122.215244 75.654356 
L 122.469007 76.716781 
L 122.72277 74.669967 
L 123.230297 73.702154 
L 123.48406 72.161535 
L 123.737823 72.242748 
L 124.24535 70.892778 
L 124.499113 70.247788 
L 124.752876 68.635015 
L 125.260403 62.76934 
L 126.275456 56.497347 
L 126.782982 55.045888 
L 127.036746 53.824451 
L 127.544272 52.893207 
L 128.051799 52.234048 
L 128.305562 51.400051 
L 128.559325 51.000156 
L 128.813088 51.08026 
L 129.066852 51.001799 
L 129.574378 49.76371 
L 129.828141 49.606607 
L 130.335668 49.807608 
L 131.096958 51.22815 
L 131.604484 51.622178 
L 132.619537 52.167609 
L 133.127064 52.282024 
L 133.63459 52.776742 
L 135.410933 53.670662 
L 136.679749 54.639698 
L 138.709855 56.836293 
L 138.963618 57.374978 
L 140.232434 58.207217 
L 140.486198 58.344616 
L 143.78512 61.933809 
L 145.307699 63.825883 
L 145.561463 63.98889 
L 146.068989 64.676948 
L 146.322752 64.777175 
L 149.367911 68.621564 
L 152.159307 71.387476 
L 153.681886 72.887986 
L 154.950703 73.982398 
L 158.249625 77.316879 
L 161.80231 80.931074 
L 164.847469 83.780521 
L 167.892628 86.351038 
L 168.907681 87.149715 
L 169.161444 87.111178 
L 170.937787 88.141508 
L 172.460367 89.244346 
L 173.982946 90.182608 
L 178.043158 92.115205 
L 180.834554 93.165632 
L 183.879713 94.073072 
L 187.178635 94.804635 
L 190.477557 95.320722 
L 192.000136 95.373277 
L 193.015189 95.43798 
L 193.268953 116.806104 
L 193.522716 111.225183 
L 193.776479 110.399386 
L 194.030242 108.401026 
L 194.284006 107.446231 
L 194.537769 112.951941 
L 194.791532 114.000441 
L 195.045295 118.050903 
L 195.299059 119.642057 
L 195.552822 117.881952 
L 195.806585 118.87893 
L 196.060348 120.439216 
L 196.567875 125.068093 
L 196.821638 125.401962 
L 197.075401 125.949857 
L 197.582928 126.351497 
L 197.836691 126.744301 
L 198.090454 126.879817 
L 198.344218 126.78052 
L 198.851744 125.934579 
L 199.359271 125.783197 
L 199.613034 126.044321 
L 199.866797 125.97985 
L 200.12056 126.154831 
L 200.374324 126.107408 
L 200.628087 126.35876 
L 201.896903 128.216327 
L 202.150666 148.051948 
L 202.658193 162.299379 
L 202.911956 166.353565 
L 203.673246 186.957707 
L 203.927009 197.029961 
L 204.434535 208.496307 
L 204.942062 220.404685 
L 205.195825 220.824885 
L 205.703352 215.778527 
L 205.957115 208.432713 
L 206.210878 204.954519 
L 206.464641 204.867695 
L 206.718405 200.2911 
L 206.972168 198.562609 
L 207.225931 198.039412 
L 207.479694 195.61109 
L 209.256037 187.43507 
L 209.763564 184.747449 
L 210.778617 180.95605 
L 211.79367 178.379488 
L 212.554959 177.055275 
L 213.316249 176.17226 
L 214.331302 175.494858 
L 215.346355 175.30306 
L 216.615171 175.444965 
L 218.137751 175.952182 
L 223.466779 178.201438 
L 223.720542 178.026153 
L 223.974305 178.702802 
L 224.228069 178.48566 
L 224.735595 179.434007 
L 224.989358 179.413114 
L 225.243122 179.094557 
L 225.496885 180.125332 
L 225.750648 179.897761 
L 226.004411 180.561834 
L 226.258175 180.463383 
L 226.511938 180.202546 
L 226.765701 181.185983 
L 227.019464 180.565094 
L 227.273228 181.307681 
L 227.526991 180.943276 
L 227.780754 181.696572 
L 228.034517 181.267212 
L 228.288281 181.946484 
L 228.542044 181.487505 
L 228.795807 182.332024 
L 229.04957 181.767039 
L 229.303333 182.510032 
L 229.557097 182.029071 
L 229.81086 182.838773 
L 230.064623 182.206719 
L 230.318386 183.034947 
L 230.57215 182.510506 
L 230.825913 183.251859 
L 231.079676 182.645487 
L 231.333439 183.490161 
L 231.587203 182.875874 
L 231.840966 183.655851 
L 232.094729 183.066336 
L 232.348492 183.893373 
L 232.602256 183.20683 
L 232.856019 184.057551 
L 233.109782 183.436093 
L 233.363545 184.203818 
L 233.617309 183.57657 
L 233.871072 184.396543 
L 234.124835 183.71865 
L 234.378598 184.549314 
L 234.632362 183.891796 
L 234.886125 184.687216 
L 235.139888 184.036933 
L 235.393651 184.849628 
L 235.647415 184.149271 
L 235.901178 185.005398 
L 236.154941 184.29809 
L 236.408704 185.110884 
L 236.662468 184.43621 
L 236.916231 185.25285 
L 237.169994 184.54261 
L 237.423757 185.377508 
L 237.677521 184.672498 
L 237.931284 185.497013 
L 238.185047 184.790133 
L 238.43881 185.611221 
L 238.692574 184.900694 
L 238.946337 185.72614 
L 239.2001 184.997454 
L 239.453863 185.835166 
L 239.707627 185.116825 
L 239.96139 185.930211 
L 240.215153 185.221571 
L 240.468916 186.032643 
L 240.72268 185.313813 
L 240.976443 186.143158 
L 241.230206 185.390086 
L 241.483969 186.239568 
L 241.737733 185.505646 
L 241.991496 186.307442 
L 242.245259 185.605057 
L 242.499022 186.42029 
L 242.752785 185.658748 
L 243.006549 186.527163 
L 243.260312 185.753562 
L 243.514075 186.586538 
L 243.767838 185.856698 
L 244.021602 186.663253 
L 244.275365 185.936935 
L 244.529128 186.745305 
L 244.782891 186.022526 
L 245.036655 186.825831 
L 245.290418 186.098675 
L 245.544181 186.910321 
L 245.797944 186.170397 
L 246.051708 186.986794 
L 246.305471 186.25755 
L 246.559234 187.060179 
L 246.812997 186.302917 
L 247.066761 187.153054 
L 247.320524 186.376693 
L 247.574287 187.19616 
L 247.82805 186.479804 
L 248.081814 187.243931 
L 248.335577 186.52491 
L 248.58934 187.35269 
L 248.843103 186.568313 
L 249.096867 187.418019 
L 249.35063 186.653605 
L 249.604393 187.46273 
L 249.858156 186.732888 
L 250.11192 187.528387 
L 250.365683 186.773448 
L 250.619446 187.616202 
L 250.873209 186.852273 
L 251.126973 187.637664 
L 251.380736 186.925371 
L 251.634499 187.710822 
L 251.888262 186.970994 
L 252.142026 187.792889 
L 252.395789 187.019241 
L 252.649552 187.83713 
L 252.903315 187.106479 
L 253.157079 187.871544 
L 253.410842 187.145988 
L 253.664605 187.957502 
L 253.918368 187.188052 
L 254.172132 188.01416 
L 254.425895 187.259843 
L 254.679658 188.044174 
L 254.933421 187.320294 
L 255.187185 188.117197 
L 255.440948 187.365892 
L 255.694711 188.16803 
L 255.948474 187.425246 
L 256.202237 188.198716 
L 256.456001 187.48128 
L 256.709764 188.270009 
L 256.963527 187.496994 
L 257.21729 188.325838 
L 257.471054 187.569137 
L 257.724817 188.357652 
L 257.97858 187.634724 
L 258.232343 188.395331 
L 258.486107 187.661893 
L 258.73987 188.479445 
L 258.993633 187.702366 
L 259.247396 188.482571 
L 259.50116 187.796171 
L 259.754923 188.561702 
L 260.008686 187.77876 
L 260.262449 188.615447 
L 260.516213 187.885015 
L 260.769976 188.624299 
L 261.023739 187.908937 
L 261.277502 188.708561 
L 261.531266 187.940654 
L 261.785029 188.716914 
L 262.038792 188.023095 
L 262.292555 188.769469 
L 262.546319 188.015542 
L 262.800082 188.819075 
L 263.053845 188.100084 
L 263.307608 188.842826 
L 263.561372 188.119864 
L 263.815135 188.911718 
L 264.068898 188.174879 
L 264.322661 188.924044 
L 264.576425 188.211968 
L 264.830188 188.995618 
L 265.083951 188.255182 
L 265.337714 189.002288 
L 265.591478 188.305613 
L 265.845241 189.080756 
L 266.099004 188.332242 
L 266.352767 189.080233 
L 266.606531 188.381264 
L 266.860294 189.145329 
L 267.114057 188.411716 
L 267.36782 189.160325 
L 267.621584 188.443054 
L 267.875347 189.206104 
L 268.12911 188.498948 
L 268.382873 189.252035 
L 268.636637 188.522559 
L 268.8904 189.266698 
L 269.144163 188.574358 
L 269.397926 189.338105 
L 269.651689 188.608164 
L 269.905453 189.348088 
L 270.159216 188.647316 
L 270.412979 189.411031 
L 270.666742 188.678862 
L 270.920506 189.398238 
L 271.174269 188.720177 
L 271.428032 189.484172 
L 271.681795 188.758054 
L 271.935559 189.468415 
L 272.189322 188.803094 
L 272.443085 189.541938 
L 272.696848 188.810451 
L 272.950612 189.542463 
L 273.204375 188.86853 
L 273.458138 189.613404 
L 273.711901 188.880044 
L 273.965665 189.613133 
L 274.219428 188.927496 
L 274.473191 189.659826 
L 274.726954 188.973391 
L 274.980718 189.692464 
L 275.234481 188.985586 
L 275.488244 189.714977 
L 275.742007 189.032586 
L 275.995771 189.753833 
L 276.249534 189.045426 
L 276.503297 189.774782 
L 276.75706 189.087651 
L 277.010824 189.814656 
L 277.264587 189.120142 
L 277.51835 189.828745 
L 277.772113 189.144886 
L 278.025877 189.877814 
L 278.27964 189.188676 
L 278.533403 189.888723 
L 278.787166 189.219866 
L 279.04093 189.921926 
L 279.294693 189.222686 
L 279.548456 189.956841 
L 279.802219 189.324778 
L 280.055983 189.99879 
L 280.309746 189.271349 
L 280.563509 189.978096 
L 280.817272 189.350406 
L 281.071036 190.065232 
L 281.324799 189.370214 
L 281.578562 190.037151 
L 281.832325 189.364421 
L 282.086088 190.101083 
L 282.339852 189.451559 
L 282.593615 190.12701 
L 282.847378 189.436257 
L 283.101141 190.130351 
L 283.354905 189.471858 
L 283.608668 190.192335 
L 283.862431 189.52167 
L 284.116194 190.192725 
L 284.369958 189.523251 
L 284.623721 190.230007 
L 284.877484 189.574845 
L 285.131247 190.250322 
L 285.385011 189.572032 
L 285.638774 190.269299 
L 285.892537 189.621605 
L 286.1463 190.312041 
L 286.400064 189.641186 
L 286.653827 190.309782 
L 286.90759 189.649896 
L 287.161353 190.33972 
L 287.415117 189.709372 
L 287.66888 190.396626 
L 287.922643 189.719485 
L 288.176406 190.372881 
L 288.43017 189.723951 
L 288.683933 190.414119 
L 288.937696 189.774917 
L 289.191459 190.455384 
L 289.445223 189.796135 
L 289.698986 190.439439 
L 289.952749 189.802839 
L 290.206512 190.493899 
L 290.460276 189.864199 
L 290.714039 190.521058 
L 290.967802 189.860567 
L 291.221565 190.510149 
L 291.475329 189.867163 
L 291.729092 190.56015 
L 291.982855 189.927311 
L 292.236618 190.576111 
L 292.490382 189.933486 
L 292.744145 190.601705 
L 292.997908 189.962983 
L 293.251671 190.616034 
L 293.505435 189.983262 
L 293.759198 190.629419 
L 294.012961 190.02026 
L 294.266724 190.6879 
L 294.520488 190.051262 
L 294.774251 190.681694 
L 295.028014 190.03871 
L 295.281777 190.692737 
L 295.53554 190.086252 
L 295.789304 190.731705 
L 296.043067 190.112002 
L 296.29683 190.745956 
L 296.550593 190.103761 
L 296.804357 190.753325 
L 297.05812 190.149225 
L 297.311883 190.791569 
L 297.565646 190.164976 
L 297.81941 190.790789 
L 298.073173 190.166218 
L 298.326936 190.805585 
L 298.580699 190.193003 
L 298.834463 190.847483 
L 299.088226 190.219779 
L 299.341989 190.859112 
L 299.595752 190.250514 
L 299.849516 190.874279 
L 300.103279 190.261785 
L 300.357042 190.909443 
L 300.610805 190.310753 
L 300.864569 190.918063 
L 301.118332 190.301945 
L 301.372095 190.925892 
L 301.625858 190.330998 
L 301.879622 190.952889 
L 302.133385 190.360947 
L 302.387148 190.98003 
L 302.640911 190.379875 
L 302.894675 190.991837 
L 303.148438 190.387635 
L 303.402201 190.99706 
L 303.655964 190.404256 
L 303.909728 191.0256 
L 304.163491 190.438412 
L 304.417254 191.063885 
L 304.671017 190.449809 
L 304.924781 191.045643 
L 305.178544 190.428222 
L 305.432307 191.049928 
L 305.68607 190.464804 
L 305.939834 191.091309 
L 306.193597 190.52178 
L 306.44736 191.127547 
L 306.701123 190.520681 
L 306.954887 191.106738 
L 307.20865 190.518876 
L 307.462413 191.136667 
L 307.716176 190.555219 
L 307.96994 191.155225 
L 308.223703 190.579327 
L 308.477466 191.175364 
L 308.731229 190.58988 
L 308.984992 191.186108 
L 309.238756 190.6041 
L 309.492519 191.19149 
L 309.746282 190.613172 
L 310.000045 191.208717 
L 310.253809 190.631802 
L 310.507572 191.229064 
L 310.761335 190.641093 
L 311.015098 191.229234 
L 311.268862 190.658061 
L 311.522625 191.253748 
L 311.776388 190.683189 
L 312.030151 191.29503 
L 312.283915 190.736097 
L 312.537678 191.317669 
L 312.791441 190.751209 
L 313.045204 191.302151 
L 313.298968 190.705213 
L 313.552731 191.276935 
L 313.806494 190.703637 
L 314.060257 191.312159 
L 314.314021 190.768619 
L 314.567784 191.358824 
L 314.821547 190.806578 
L 315.07531 191.379903 
L 315.329074 190.828766 
L 315.582837 191.409474 
L 315.8366 190.848427 
L 316.090363 191.39611 
L 316.344127 190.824637 
L 316.59789 191.378666 
L 316.851653 190.812517 
L 317.105416 191.391693 
L 317.35918 190.836626 
L 317.612943 191.40654 
L 317.866706 190.875213 
L 318.120469 191.450811 
L 318.374233 190.889678 
L 318.627996 191.455928 
L 318.881759 190.917014 
L 319.135522 191.472349 
L 319.389286 190.926235 
L 319.643049 191.505006 
L 319.896812 190.972054 
L 320.150575 191.517791 
L 320.404339 190.989041 
L 320.658102 191.537488 
L 320.911865 190.994922 
L 321.165628 191.534079 
L 321.419392 191.006858 
L 321.673155 191.538179 
L 321.926918 190.982301 
L 322.180681 191.53929 
L 322.434444 191.015994 
L 322.688208 191.558081 
L 322.941971 191.034512 
L 323.195734 191.598592 
L 323.449497 191.073107 
L 323.703261 191.595671 
L 323.957024 191.078138 
L 324.210787 191.628859 
L 324.46455 191.103758 
L 324.718314 191.62987 
L 324.972077 191.114433 
L 325.22584 191.642057 
L 325.479603 191.112304 
L 325.733367 191.654378 
L 325.98713 191.157982 
L 326.240893 191.666668 
L 326.494656 191.139131 
L 326.74842 191.652316 
L 327.002183 191.126726 
L 327.255946 191.645069 
L 327.509709 191.144965 
L 327.763473 191.661303 
L 328.017236 191.133489 
L 328.270999 191.673673 
L 328.524762 191.145543 
L 328.778526 191.662707 
L 329.032289 191.141299 
L 329.286052 191.684736 
L 329.539815 191.143395 
L 329.793579 191.67305 
L 330.047342 191.152475 
L 330.301105 191.69013 
L 330.554868 191.154773 
L 330.808632 191.69482 
L 331.062395 191.152596 
L 331.316158 191.694464 
L 331.569921 191.18283 
L 331.823685 191.719224 
L 332.077448 191.171355 
L 332.331211 191.697178 
L 332.584974 191.261286 
L 332.838738 191.787142 
L 333.092501 191.261937 
L 333.346264 191.751845 
L 333.853791 191.268505 
L 334.107554 191.696442 
L 334.361317 191.002972 
L 334.61508 191.402807 
L 335.122607 191.679129 
L 335.630133 191.870315 
L 335.883896 191.325632 
L 336.13766 191.878119 
L 336.391423 191.492059 
L 336.645186 191.739572 
L 336.898949 191.383292 
L 337.152713 191.855069 
L 337.660239 191.274676 
L 338.167766 191.947211 
L 338.421529 191.535355 
L 338.675292 191.924539 
L 338.929055 191.500512 
L 339.182819 191.792196 
L 339.436582 191.476937 
L 339.690345 191.423391 
L 339.944108 191.849054 
L 340.197872 191.927295 
L 340.705398 191.392508 
L 340.959161 191.842582 
L 341.212925 191.851895 
L 341.466688 191.504934 
L 341.720451 191.552569 
L 341.974214 192.004433 
L 342.227978 191.705175 
L 342.481741 191.207896 
L 342.989267 192.088771 
L 343.243031 191.944839 
L 343.496794 191.592704 
L 343.750557 191.514572 
L 344.00432 191.885472 
L 344.258084 191.382052 
L 344.511847 191.875686 
L 344.76561 191.405526 
L 345.019373 191.891017 
L 345.273137 191.54092 
L 345.5269 192.036875 
L 345.780663 191.551894 
L 346.034426 192.020461 
L 346.28819 191.961866 
L 346.795716 191.491328 
L 347.049479 191.976391 
L 347.303243 191.694955 
L 347.557006 192.174727 
L 348.064532 191.31029 
L 348.572059 191.814359 
L 349.079585 192.091541 
L 349.333348 191.733771 
L 349.587112 191.911915 
L 349.840875 191.602082 
L 350.094638 191.583216 
L 350.348401 192.017315 
L 350.602165 192.183537 
L 351.109691 191.620095 
L 351.363454 192.0497 
L 351.617218 191.56458 
L 351.870981 192.055587 
L 352.124744 191.667767 
L 352.378507 192.024721 
L 352.632271 191.554566 
L 352.886034 192.063338 
L 353.139797 191.610628 
L 353.39356 192.045368 
L 353.647324 191.59992 
L 353.901087 192.074085 
L 354.15485 191.565969 
L 354.408613 192.061056 
L 354.662377 191.671257 
L 354.91614 192.17764 
L 355.169903 191.777348 
L 355.423666 192.271473 
L 355.67743 191.859459 
L 355.931193 191.767182 
L 356.184956 192.240179 
L 356.438719 191.790893 
L 356.692483 192.271136 
L 357.200009 191.663706 
L 357.707536 192.292664 
L 358.215062 191.51666 
L 358.722589 192.150668 
L 358.976352 192.281716 
L 359.483878 191.65085 
L 359.737642 192.130385 
L 359.991405 191.649163 
L 360.245168 192.069053 
L 360.498931 192.079646 
L 360.752695 191.646968 
L 361.006458 192.120704 
L 361.260221 191.695602 
L 361.513984 192.043388 
L 361.767748 192.072953 
L 362.021511 191.562511 
L 362.275274 192.140294 
L 362.529037 191.719902 
L 363.036564 192.305028 
L 363.290327 191.953563 
L 363.54409 192.126067 
L 363.797853 191.778965 
L 364.051617 192.060928 
L 364.30538 191.659295 
L 364.812906 192.32583 
L 365.06667 191.943793 
L 365.574196 192.001555 
L 365.827959 191.391017 
L 366.335486 192.039483 
L 366.589249 192.114108 
L 367.604302 191.900496 
L 368.111829 192.21202 
L 368.365592 191.898494 
L 368.619355 192.212179 
L 368.873118 191.970708 
L 369.126882 191.885834 
L 369.634408 192.258674 
L 369.888171 192.226643 
L 370.141935 191.735109 
L 370.395698 192.20223 
L 370.649461 191.787573 
L 370.903224 192.206284 
L 371.410751 191.970934 
L 371.664514 192.46335 
L 372.172041 192.169426 
L 373.187094 192.412311 
L 373.440857 192.328341 
L 373.69462 191.992306 
L 373.948383 192.060808 
L 374.202147 191.550031 
L 374.709673 192.369288 
L 374.963436 192.442176 
L 375.470963 192.170084 
L 375.978489 192.443101 
L 376.486016 192.290251 
L 376.739779 191.963419 
L 376.993542 192.402122 
L 377.247305 192.028846 
L 377.501069 192.17065 
L 377.754832 191.901139 
L 378.008595 192.34293 
L 378.262358 192.467416 
L 378.769885 192.069389 
L 379.023648 192.00804 
L 379.277411 192.13889 
L 379.531175 192.474544 
L 379.784938 192.040624 
L 380.038701 192.376606 
L 380.292464 192.04008 
L 380.546228 192.087074 
L 380.799991 192.46302 
L 381.053754 192.13138 
L 381.307517 192.39582 
L 381.561281 191.999479 
L 381.815044 192.099806 
L 382.068807 192.454224 
L 382.576334 191.935069 
L 382.830097 192.365175 
L 383.08386 192.131468 
L 383.337623 192.551442 
L 383.591387 192.161902 
L 383.84515 192.096932 
L 384.098913 192.507774 
L 384.352676 192.194842 
L 384.60644 192.182632 
L 384.860203 192.504842 
L 385.367729 191.95227 
L 385.875256 192.185501 
L 386.382782 192.239767 
L 386.636546 192.498353 
L 386.890309 192.040279 
L 387.144072 192.50036 
L 387.397835 192.164379 
L 387.651599 192.274763 
L 387.905362 192.257936 
L 388.159125 191.698974 
L 388.666652 192.531583 
L 388.920415 192.616013 
L 389.935468 192.321074 
L 390.189231 192.411067 
L 390.442994 192.04969 
L 390.696757 192.559703 
L 390.950521 192.236026 
L 391.204284 192.437517 
L 391.458047 192.07346 
L 391.71181 192.380975 
L 391.965574 192.361532 
L 392.219337 191.906848 
L 392.726863 192.499974 
L 392.980627 192.569845 
L 393.23439 192.46804 
L 393.488153 192.216409 
L 393.99568 192.283704 
L 394.249443 191.681985 
L 394.756969 192.248109 
L 395.264496 192.401499 
L 395.518259 192.624944 
L 396.025786 192.548894 
L 396.279549 192.446185 
L 396.533312 192.501814 
L 396.787075 192.146596 
L 397.040839 192.668543 
L 397.294602 192.27457 
L 397.548365 192.304636 
L 397.802128 192.629559 
L 398.055892 192.234599 
L 398.309655 192.264843 
L 398.563418 192.582753 
L 399.070945 192.114239 
L 399.324708 192.513861 
L 399.578471 192.18279 
L 399.832234 192.575843 
L 400.085998 192.228842 
L 400.339761 192.515226 
L 400.593524 192.093918 
L 400.847287 192.486495 
L 401.101051 192.507454 
L 401.354814 192.18601 
L 401.608577 192.331338 
L 401.86234 192.641771 
L 402.116104 192.303221 
L 402.62363 192.51555 
L 402.877393 192.180563 
L 403.131156 192.150683 
L 403.638683 192.507934 
L 404.146209 192.591786 
L 404.399973 192.506991 
L 404.653736 192.135623 
L 404.907499 192.549936 
L 405.161262 192.190634 
L 405.415026 192.550658 
L 405.668789 192.343467 
L 405.922552 192.608458 
L 406.176315 192.208299 
L 406.683842 192.575044 
L 406.937605 192.247237 
L 407.191368 192.457471 
L 407.445132 192.307951 
L 407.698895 192.7934 
L 408.206421 192.316255 
L 408.967711 192.370005 
L 409.221474 192.3067 
L 409.475238 192.499396 
L 409.729001 192.374316 
L 409.982764 191.906712 
L 410.490291 192.740366 
L 411.25158 192.739232 
L 411.759107 192.634169 
L 412.266633 192.145407 
L 412.520397 192.578694 
L 413.027923 192.330474 
L 413.281686 192.821007 
L 413.789213 192.538494 
L 414.550503 192.613636 
L 415.058029 192.396783 
L 415.311792 192.216513 
L 415.565556 192.620567 
L 415.819319 192.281705 
L 416.073082 192.73883 
L 416.580608 192.313529 
L 417.088135 192.686045 
L 417.341898 192.338397 
L 417.595661 192.372762 
L 417.849425 192.708571 
L 418.356951 192.260245 
L 418.610714 192.646913 
L 418.864478 192.548691 
L 419.118241 192.271411 
L 419.372004 192.681831 
L 419.879531 192.329117 
L 420.133294 192.748234 
L 420.64082 192.294318 
L 420.894584 192.668095 
L 421.40211 192.452942 
L 421.655873 192.645322 
L 422.1634 192.243517 
L 422.92469 192.789732 
L 423.432216 192.759164 
L 423.939743 192.619294 
L 424.193506 192.666767 
L 424.447269 192.349712 
L 424.701032 192.780862 
L 424.954796 192.420137 
L 425.462322 192.724194 
L 425.716085 192.409579 
L 425.969849 192.598127 
L 426.223612 192.321339 
L 426.477375 192.75312 
L 427.238665 192.421036 
L 427.492428 192.612817 
L 427.746191 192.662294 
L 427.999955 192.298636 
L 428.507481 192.75179 
L 428.761244 192.706493 
L 429.268771 192.393506 
L 429.522534 192.694834 
L 429.776297 192.524765 
L 430.283824 192.446366 
L 430.537587 192.969721 
L 430.79135 192.769658 
L 431.045113 192.80967 
L 431.298877 193.016919 
L 431.55264 192.755732 
L 431.806403 192.788548 
L 432.060166 192.951413 
L 432.31393 192.684668 
L 432.567693 192.668678 
L 432.821456 192.785631 
L 433.582746 192.676511 
L 433.836509 192.266644 
L 434.090272 192.722723 
L 434.344036 192.476378 
L 434.597799 192.710588 
L 434.851562 192.535728 
L 435.105325 192.590828 
L 435.359089 192.232152 
L 435.612852 192.64349 
L 436.120378 192.814982 
L 436.881668 192.555978 
L 437.389195 192.537192 
L 437.896721 192.499428 
L 438.150484 192.833484 
L 438.404248 192.488486 
L 438.658011 192.436183 
L 438.911774 192.747232 
L 439.165537 192.7485 
L 439.419301 192.534945 
L 439.926827 192.66091 
L 440.18059 192.205437 
L 440.688117 192.734798 
L 441.195643 192.827023 
L 441.70317 192.619542 
L 441.956933 192.425741 
L 442.210696 192.748838 
L 442.46446 192.438198 
L 442.718223 192.771008 
L 442.971986 192.499266 
L 443.225749 192.640197 
L 443.479512 192.641786 
L 443.733276 192.280951 
L 443.987039 192.698389 
L 444.494565 192.891117 
L 445.509618 192.748513 
L 446.017145 192.450694 
L 446.270908 192.858669 
L 446.524671 192.580005 
L 446.778435 192.515979 
L 447.032198 192.830013 
L 447.539724 192.548155 
L 447.793488 192.880422 
L 448.047251 192.584432 
L 448.301014 192.478673 
L 448.808541 192.801049 
L 449.062304 192.584998 
L 449.56983 192.687915 
L 449.823594 192.263193 
L 450.33112 192.616084 
L 451.09241 192.772825 
L 451.599936 192.862667 
L 452.614989 192.532496 
L 452.868753 192.996918 
L 453.376279 192.591594 
L 454.137569 192.77012 
L 454.898859 192.631426 
L 455.152622 192.538227 
L 455.406385 192.648138 
L 455.660148 192.575694 
L 455.913912 192.772079 
L 456.167675 192.609674 
L 456.421438 192.584697 
L 456.928964 193.115875 
L 457.182728 192.854536 
L 457.690254 192.970589 
L 457.944017 192.754741 
L 458.451544 192.869063 
L 458.95907 192.723039 
L 459.212834 192.775745 
L 459.466597 192.463791 
L 459.72036 192.941194 
L 460.227887 192.613803 
L 461.24294 192.736989 
L 461.496703 192.435274 
L 461.750466 192.756282 
L 462.004229 192.574946 
L 462.257993 192.817744 
L 462.511756 192.504744 
L 462.765519 192.743829 
L 463.019282 192.783985 
L 463.273046 192.516579 
L 463.526809 192.756204 
L 463.780572 192.751764 
L 464.034335 192.484537 
L 464.288099 192.81206 
L 464.541862 192.824444 
L 464.795625 192.617886 
L 465.049388 192.608073 
L 465.303152 192.788989 
L 465.556915 192.771952 
L 465.810678 192.506744 
L 466.064441 192.854546 
L 466.571968 192.568349 
L 467.079494 192.820346 
L 467.333258 192.495124 
L 467.587021 192.845917 
L 468.094547 192.564881 
L 468.348311 192.795458 
L 468.602074 192.817363 
L 468.855837 192.510572 
L 469.1096 192.76755 
L 469.363363 192.789889 
L 469.617127 192.53586 
L 469.87089 192.881047 
L 470.378416 192.614997 
L 470.63218 192.906875 
L 470.885943 192.643482 
L 471.139706 192.696594 
L 471.393469 192.868043 
L 471.647233 192.5244 
L 472.408522 192.875062 
L 472.916049 192.587807 
L 473.169812 192.838655 
L 473.423575 192.75283 
L 473.677339 192.507396 
L 473.931102 192.900488 
L 474.692392 192.700865 
L 474.946155 192.876253 
L 475.453681 192.665528 
L 475.707445 193.010425 
L 476.214971 192.665641 
L 477.483787 192.946353 
L 478.245077 192.780425 
L 478.49884 192.59712 
L 478.752604 192.843685 
L 479.006367 192.541015 
L 479.26013 192.957946 
L 480.528946 192.697574 
L 481.036473 192.808361 
L 481.290236 192.576048 
L 481.543999 192.96224 
L 481.797763 192.683819 
L 482.051526 192.71275 
L 482.305289 192.89859 
L 482.559052 192.813756 
L 482.812815 192.599801 
L 483.066579 192.93611 
L 483.574105 192.648637 
L 483.827868 192.884834 
L 484.335395 192.614663 
L 484.589158 192.998189 
L 485.096685 192.705629 
L 485.857974 192.819788 
L 486.111738 192.605906 
L 486.365501 192.995937 
L 486.873027 192.685425 
L 487.634317 192.827912 
L 487.88808 192.630523 
L 488.141844 192.993531 
L 488.64937 192.671008 
L 489.156897 192.94034 
L 489.664423 192.659433 
L 489.918186 192.993921 
L 490.425713 192.662652 
L 490.933239 192.912613 
L 491.187003 192.752697 
L 491.694529 192.68556 
L 491.948292 193.128152 
L 492.202056 192.933527 
L 492.455819 192.894918 
L 492.963345 193.063759 
L 493.470872 192.939288 
L 494.232162 192.826773 
L 494.485925 192.883453 
L 494.739688 192.791242 
L 494.993451 192.498234 
L 495.247215 192.929456 
L 495.754741 193.051956 
L 497.27732 192.884582 
L 497.784847 192.67115 
L 498.03861 193.048958 
L 498.292373 192.777599 
L 498.546137 192.699318 
L 499.307426 192.923645 
L 499.814953 192.888486 
L 500.068716 192.708219 
L 500.576243 192.845803 
L 500.830006 192.465508 
L 501.083769 192.858328 
L 501.591296 193.03443 
L 502.606349 192.888961 
L 503.113875 192.729886 
L 503.367638 192.968055 
L 503.621402 192.635175 
L 503.875165 192.874469 
L 504.128928 192.945992 
L 504.636455 192.76846 
L 504.890218 192.923905 
L 505.143981 192.661747 
L 505.397744 192.981418 
L 505.905271 192.725298 
L 506.412797 192.970013 
L 506.920324 192.73886 
L 507.174087 193.043193 
L 507.42785 192.774907 
L 507.681614 192.739704 
L 508.18914 192.972257 
L 508.442903 192.965948 
L 508.696667 192.795137 
L 508.95043 192.763315 
L 509.204193 192.983555 
L 509.457956 192.750585 
L 509.711719 192.7796 
L 509.965483 193.024855 
L 510.219246 192.787651 
L 510.726772 192.889807 
L 510.980536 192.740104 
L 511.234299 193.070309 
L 511.488062 192.81808 
L 511.741825 192.750077 
L 512.756878 192.971746 
L 513.264405 192.77829 
L 513.518168 192.960767 
L 513.771931 192.623196 
L 514.279458 193.023643 
L 515.294511 192.858005 
L 515.548274 192.965773 
L 515.802037 192.742239 
L 516.055801 192.960479 
L 516.309564 192.693955 
L 516.563327 192.953681 
L 517.070854 192.859518 
L 517.324617 192.903871 
L 517.57838 192.621336 
L 517.832143 193.022566 
L 518.33967 193.079615 
L 519.608486 192.973876 
L 520.369776 192.829556 
L 520.623539 193.010479 
L 520.877302 192.697317 
L 522.653645 192.872267 
L 523.414935 192.843919 
L 523.668698 192.98741 
L 523.922461 192.695476 
L 524.176224 193.030027 
L 524.683751 192.824404 
L 525.191277 192.925648 
L 525.445041 192.783162 
L 525.698804 193.028334 
L 525.952567 192.749508 
L 526.460094 193.001451 
L 526.96762 192.758655 
L 527.221383 192.929037 
L 527.475147 192.948868 
L 527.72891 192.703528 
L 527.982673 192.969942 
L 528.236436 192.9714 
L 528.4902 192.798828 
L 528.997726 192.957287 
L 529.251489 192.760177 
L 529.505253 193.03868 
L 529.759016 192.804962 
L 530.266542 192.963114 
L 530.520306 192.737399 
L 530.774069 193.045596 
L 531.281595 192.816041 
L 531.789122 192.996755 
L 532.042885 192.811158 
L 532.296648 192.922982 
L 532.550412 192.822075 
L 532.804175 193.069193 
L 533.057938 192.803655 
L 533.311701 192.778586 
L 534.072991 192.95946 
L 535.341807 192.966264 
L 535.849334 192.790117 
L 536.103097 192.968397 
L 536.35686 192.811685 
L 536.610623 193.136201 
L 536.864387 192.906061 
L 537.11815 192.833303 
L 538.640729 193.066233 
L 539.655782 192.878463 
L 539.909546 192.814657 
L 540.163309 193.057792 
L 540.417072 192.745234 
L 540.924599 193.069549 
L 541.685888 192.87454 
L 542.193415 192.942388 
L 542.447178 192.728521 
L 542.700941 193.096775 
L 543.462231 192.861028 
L 544.731047 192.926567 
L 544.984811 192.828035 
L 545.492337 193.028375 
L 545.7461 192.760265 
L 545.999864 192.978037 
L 546.253627 193.029936 
L 546.761153 192.852848 
L 547.26868 193.019365 
L 547.522443 192.845775 
L 548.02997 192.95914 
L 548.283733 192.736579 
L 548.537496 193.122975 
L 551.075128 192.951772 
L 551.328892 192.842827 
L 551.582655 193.002393 
L 551.836418 192.816861 
L 552.090181 193.113823 
L 552.343945 192.853992 
L 553.105234 193.037808 
L 553.612761 192.874829 
L 553.866524 192.978724 
L 554.120287 192.891944 
L 554.374051 192.962737 
L 554.627814 192.62549 
L 554.881577 192.982472 
L 555.389104 193.157426 
L 557.926736 192.885234 
L 558.180499 193.074574 
L 558.434263 192.769976 
L 558.941789 193.101228 
L 559.956842 192.918145 
L 560.464369 192.978648 
L 560.718132 192.832234 
L 560.971895 193.101989 
L 561.225658 192.849905 
L 561.986948 193.079628 
L 562.494475 192.877487 
L 563.002001 193.018592 
L 563.255764 192.82606 
L 563.509527 193.060298 
L 564.017054 192.903575 
L 564.270817 193.121543 
L 564.52458 192.868099 
L 565.539633 192.97446 
L 565.793397 192.908371 
L 566.300923 192.975124 
L 566.554686 192.805769 
L 566.80845 193.1867 
L 567.315976 192.988848 
L 569.599845 192.890519 
L 569.853609 193.129653 
L 570.107372 192.849215 
L 570.614898 192.988014 
L 571.629951 192.990311 
L 572.898768 192.911978 
L 573.152531 193.059497 
L 573.406294 192.720233 
L 573.913821 193.120751 
L 574.421347 193.14306 
L 575.943927 192.97362 
L 576.451453 192.992777 
L 576.705216 192.849722 
L 576.958979 193.243705 
L 577.466506 193.019274 
L 578.481559 193.17653 
L 579.242849 192.998845 
L 580.511665 193.005217 
L 580.765428 192.869478 
L 581.019191 193.154139 
L 581.272955 192.876148 
L 581.780481 192.957613 
L 583.556824 193.062472 
L 584.318114 192.957769 
L 584.571877 193.113224 
L 584.82564 192.833861 
L 585.333167 193.109842 
L 586.094456 192.947525 
L 586.601983 193.052355 
L 586.855746 192.884232 
L 587.109509 193.013092 
L 587.617036 192.891268 
L 587.870799 193.242444 
L 588.124562 193.065187 
L 588.378326 193.025703 
L 589.139615 193.231192 
L 590.915958 192.964769 
L 591.423484 193.069078 
L 591.677248 192.815195 
L 591.931011 193.117332 
L 593.199827 193.020793 
L 593.45359 193.073613 
L 593.707354 192.957168 
L 594.21488 192.997422 
L 594.468643 192.865181 
L 594.722407 193.273135 
L 595.229933 193.117356 
L 595.73746 193.266703 
L 597.260039 193.077036 
L 598.782619 193.060406 
L 599.036382 192.718507 
L 599.290145 193.025399 
L 599.797672 193.171883 
L 602.081541 192.99394 
L 602.589067 193.065894 
L 602.842831 192.791012 
L 603.096594 193.124808 
L 603.60412 193.175369 
L 605.887989 193.065758 
L 606.141753 192.84517 
L 606.395516 193.190273 
L 606.903042 193.006957 
L 608.171859 193.057219 
L 608.679385 193.065091 
L 608.933148 192.956119 
L 609.186912 193.079926 
L 609.440675 192.884193 
L 609.694438 193.191273 
L 610.201965 192.960838 
L 611.217018 193.128781 
L 611.978307 192.99326 
L 612.232071 193.117729 
L 612.485834 192.947153 
L 612.739597 193.136038 
L 612.99336 192.899417 
L 613.247124 193.090623 
L 613.75465 193.067439 
L 614.769703 192.924237 
L 615.023466 193.138052 
L 615.27723 192.93608 
L 615.784756 193.13542 
L 616.292283 192.992095 
L 616.546046 193.111928 
L 616.799809 193.077551 
L 617.053572 192.909903 
L 617.307335 193.170759 
L 617.814862 192.983033 
L 618.322388 193.152929 
L 618.829915 193.01096 
L 619.337441 193.041367 
L 619.591205 192.955405 
L 619.844968 193.293218 
L 620.352494 193.05698 
L 621.621311 193.231091 
L 622.3826 193.163433 
L 622.636364 193.157576 
L 622.636364 193.157576 
" style="fill:none;stroke:#c44e52;stroke-linecap:round;stroke-width:2.25;"/>
   </g>
   <g id="patch_3">
    <path d="M 90 315 
L 90 43.2 
" style="fill:none;stroke:#262626;stroke-linecap:square;stroke-linejoin:miter;stroke-width:1.875;"/>
   </g>
   <g id="patch_4">
    <path d="M 648 315 
L 648 43.2 
" style="fill:none;stroke:#262626;stroke-linecap:square;stroke-linejoin:miter;stroke-width:1.875;"/>
   </g>
   <g id="patch_5">
    <path d="M 90 315 
L 648 315 
" style="fill:none;stroke:#262626;stroke-linecap:square;stroke-linejoin:miter;stroke-width:1.875;"/>
   </g>
   <g id="patch_6">
    <path d="M 90 43.2 
L 648 43.2 
" style="fill:none;stroke:#262626;stroke-linecap:square;stroke-linejoin:miter;stroke-width:1.875;"/>
   </g>
   <g id="text_14">
    <!-- Error in coefficients -->
    <defs>
     <path d="M 41.109375 46.296875 
Q 39.59375 47.171875 37.8125 47.578125 
Q 36.03125 48 33.890625 48 
Q 26.265625 48 22.1875 43.046875 
Q 18.109375 38.09375 18.109375 28.8125 
L 18.109375 0 
L 9.078125 0 
L 9.078125 54.6875 
L 18.109375 54.6875 
L 18.109375 46.1875 
Q 20.953125 51.171875 25.484375 53.578125 
Q 30.03125 56 36.53125 56 
Q 37.453125 56 38.578125 55.875 
Q 39.703125 55.765625 41.0625 55.515625 
z
" id="DejaVuSans-114"/>
     <path id="DejaVuSans-32"/>
     <path d="M 9.421875 54.6875 
L 18.40625 54.6875 
L 18.40625 0 
L 9.421875 0 
z
M 9.421875 75.984375 
L 18.40625 75.984375 
L 18.40625 64.59375 
L 9.421875 64.59375 
z
" id="DejaVuSans-105"/>
     <path d="M 54.890625 33.015625 
L 54.890625 0 
L 45.90625 0 
L 45.90625 32.71875 
Q 45.90625 40.484375 42.875 44.328125 
Q 39.84375 48.1875 33.796875 48.1875 
Q 26.515625 48.1875 22.3125 43.546875 
Q 18.109375 38.921875 18.109375 30.90625 
L 18.109375 0 
L 9.078125 0 
L 9.078125 54.6875 
L 18.109375 54.6875 
L 18.109375 46.1875 
Q 21.34375 51.125 25.703125 53.5625 
Q 30.078125 56 35.796875 56 
Q 45.21875 56 50.046875 50.171875 
Q 54.890625 44.34375 54.890625 33.015625 
z
" id="DejaVuSans-110"/>
     <path d="M 37.109375 75.984375 
L 37.109375 68.5 
L 28.515625 68.5 
Q 23.6875 68.5 21.796875 66.546875 
Q 19.921875 64.59375 19.921875 59.515625 
L 19.921875 54.6875 
L 34.71875 54.6875 
L 34.71875 47.703125 
L 19.921875 47.703125 
L 19.921875 0 
L 10.890625 0 
L 10.890625 47.703125 
L 2.296875 47.703125 
L 2.296875 54.6875 
L 10.890625 54.6875 
L 10.890625 58.5 
Q 10.890625 67.625 15.140625 71.796875 
Q 19.390625 75.984375 28.609375 75.984375 
z
" id="DejaVuSans-102"/>
     <path d="M 18.3125 70.21875 
L 18.3125 54.6875 
L 36.8125 54.6875 
L 36.8125 47.703125 
L 18.3125 47.703125 
L 18.3125 18.015625 
Q 18.3125 11.328125 20.140625 9.421875 
Q 21.96875 7.515625 27.59375 7.515625 
L 36.8125 7.515625 
L 36.8125 0 
L 27.59375 0 
Q 17.1875 0 13.234375 3.875 
Q 9.28125 7.765625 9.28125 18.015625 
L 9.28125 47.703125 
L 2.6875 47.703125 
L 2.6875 54.6875 
L 9.28125 54.6875 
L 9.28125 70.21875 
z
" id="DejaVuSans-116"/>
     <path d="M 44.28125 53.078125 
L 44.28125 44.578125 
Q 40.484375 46.53125 36.375 47.5 
Q 32.28125 48.484375 27.875 48.484375 
Q 21.1875 48.484375 17.84375 46.4375 
Q 14.5 44.390625 14.5 40.28125 
Q 14.5 37.15625 16.890625 35.375 
Q 19.28125 33.59375 26.515625 31.984375 
L 29.59375 31.296875 
Q 39.15625 29.25 43.1875 25.515625 
Q 47.21875 21.78125 47.21875 15.09375 
Q 47.21875 7.46875 41.1875 3.015625 
Q 35.15625 -1.421875 24.609375 -1.421875 
Q 20.21875 -1.421875 15.453125 -0.5625 
Q 10.6875 0.296875 5.421875 2 
L 5.421875 11.28125 
Q 10.40625 8.6875 15.234375 7.390625 
Q 20.0625 6.109375 24.8125 6.109375 
Q 31.15625 6.109375 34.5625 8.28125 
Q 37.984375 10.453125 37.984375 14.40625 
Q 37.984375 18.0625 35.515625 20.015625 
Q 33.0625 21.96875 24.703125 23.78125 
L 21.578125 24.515625 
Q 13.234375 26.265625 9.515625 29.90625 
Q 5.8125 33.546875 5.8125 39.890625 
Q 5.8125 47.609375 11.28125 51.796875 
Q 16.75 56 26.8125 56 
Q 31.78125 56 36.171875 55.265625 
Q 40.578125 54.546875 44.28125 53.078125 
z
" id="DejaVuSans-115"/>
    </defs>
    <g style="fill:#262626;" transform="translate(281.404688 37.2)scale(0.18 -0.18)">
     <use xlink:href="#DejaVuSans-69"/>
     <use x="63.183594" xlink:href="#DejaVuSans-114"/>
     <use x="102.546875" xlink:href="#DejaVuSans-114"/>
     <use x="141.410156" xlink:href="#DejaVuSans-111"/>
     <use x="202.591797" xlink:href="#DejaVuSans-114"/>
     <use x="243.705078" xlink:href="#DejaVuSans-32"/>
     <use x="275.492188" xlink:href="#DejaVuSans-105"/>
     <use x="303.275391" xlink:href="#DejaVuSans-110"/>
     <use x="366.654297" xlink:href="#DejaVuSans-32"/>
     <use x="398.441406" xlink:href="#DejaVuSans-99"/>
     <use x="453.421875" xlink:href="#DejaVuSans-111"/>
     <use x="514.603516" xlink:href="#DejaVuSans-101"/>
     <use x="576.126953" xlink:href="#DejaVuSans-102"/>
     <use x="611.332031" xlink:href="#DejaVuSans-102"/>
     <use x="646.537109" xlink:href="#DejaVuSans-105"/>
     <use x="674.320312" xlink:href="#DejaVuSans-99"/>
     <use x="729.300781" xlink:href="#DejaVuSans-105"/>
     <use x="757.083984" xlink:href="#DejaVuSans-101"/>
     <use x="818.607422" xlink:href="#DejaVuSans-110"/>
     <use x="881.986328" xlink:href="#DejaVuSans-116"/>
     <use x="921.195312" xlink:href="#DejaVuSans-115"/>
    </g>
   </g>
   <g id="legend_1">
    <g id="patch_7">
     <path d="M 471.375234 153.275625 
L 636.45 153.275625 
Q 639.75 153.275625 639.75 149.975625 
L 639.75 54.75 
Q 639.75 51.45 636.45 51.45 
L 471.375234 51.45 
Q 468.075234 51.45 468.075234 54.75 
L 468.075234 149.975625 
Q 468.075234 153.275625 471.375234 153.275625 
z
" style="fill:#ffffff;opacity:0.8;stroke:#cccccc;stroke-linejoin:miter;stroke-width:1.5;"/>
    </g>
    <g id="line2d_5">
     <path d="M 474.675234 64.812422 
L 507.675234 64.812422 
" style="fill:none;stroke:#4c72b0;stroke-linecap:round;stroke-width:2.25;"/>
    </g>
    <g id="line2d_6"/>
    <g id="text_15">
     <!-- Baseline -->
     <defs>
      <path d="M 19.671875 34.8125 
L 19.671875 8.109375 
L 35.5 8.109375 
Q 43.453125 8.109375 47.28125 11.40625 
Q 51.125 14.703125 51.125 21.484375 
Q 51.125 28.328125 47.28125 31.5625 
Q 43.453125 34.8125 35.5 34.8125 
z
M 19.671875 64.796875 
L 19.671875 42.828125 
L 34.28125 42.828125 
Q 41.5 42.828125 45.03125 45.53125 
Q 48.578125 48.25 48.578125 53.8125 
Q 48.578125 59.328125 45.03125 62.0625 
Q 41.5 64.796875 34.28125 64.796875 
z
M 9.8125 72.90625 
L 35.015625 72.90625 
Q 46.296875 72.90625 52.390625 68.21875 
Q 58.5 63.53125 58.5 54.890625 
Q 58.5 48.1875 55.375 44.234375 
Q 52.25 40.28125 46.1875 39.3125 
Q 53.46875 37.75 57.5 32.78125 
Q 61.53125 27.828125 61.53125 20.40625 
Q 61.53125 10.640625 54.890625 5.3125 
Q 48.25 0 35.984375 0 
L 9.8125 0 
z
" id="DejaVuSans-66"/>
      <path d="M 34.28125 27.484375 
Q 23.390625 27.484375 19.1875 25 
Q 14.984375 22.515625 14.984375 16.5 
Q 14.984375 11.71875 18.140625 8.90625 
Q 21.296875 6.109375 26.703125 6.109375 
Q 34.1875 6.109375 38.703125 11.40625 
Q 43.21875 16.703125 43.21875 25.484375 
L 43.21875 27.484375 
z
M 52.203125 31.203125 
L 52.203125 0 
L 43.21875 0 
L 43.21875 8.296875 
Q 40.140625 3.328125 35.546875 0.953125 
Q 30.953125 -1.421875 24.3125 -1.421875 
Q 15.921875 -1.421875 10.953125 3.296875 
Q 6 8.015625 6 15.921875 
Q 6 25.140625 12.171875 29.828125 
Q 18.359375 34.515625 30.609375 34.515625 
L 43.21875 34.515625 
L 43.21875 35.40625 
Q 43.21875 41.609375 39.140625 45 
Q 35.0625 48.390625 27.6875 48.390625 
Q 23 48.390625 18.546875 47.265625 
Q 14.109375 46.140625 10.015625 43.890625 
L 10.015625 52.203125 
Q 14.9375 54.109375 19.578125 55.046875 
Q 24.21875 56 28.609375 56 
Q 40.484375 56 46.34375 49.84375 
Q 52.203125 43.703125 52.203125 31.203125 
z
" id="DejaVuSans-97"/>
      <path d="M 9.421875 75.984375 
L 18.40625 75.984375 
L 18.40625 0 
L 9.421875 0 
z
" id="DejaVuSans-108"/>
     </defs>
     <g style="fill:#262626;" transform="translate(520.875234 70.587422)scale(0.165 -0.165)">
      <use xlink:href="#DejaVuSans-66"/>
      <use x="68.603516" xlink:href="#DejaVuSans-97"/>
      <use x="129.882812" xlink:href="#DejaVuSans-115"/>
      <use x="181.982422" xlink:href="#DejaVuSans-101"/>
      <use x="243.505859" xlink:href="#DejaVuSans-108"/>
      <use x="271.289062" xlink:href="#DejaVuSans-105"/>
      <use x="299.072266" xlink:href="#DejaVuSans-110"/>
      <use x="362.451172" xlink:href="#DejaVuSans-101"/>
     </g>
    </g>
    <g id="line2d_7">
     <path d="M 474.675234 89.031328 
L 507.675234 89.031328 
" style="fill:none;stroke:#dd8452;stroke-linecap:round;stroke-width:2.25;"/>
    </g>
    <g id="line2d_8"/>
    <g id="text_16">
     <!-- Multitask -->
     <defs>
      <path d="M 8.5 21.578125 
L 8.5 54.6875 
L 17.484375 54.6875 
L 17.484375 21.921875 
Q 17.484375 14.15625 20.5 10.265625 
Q 23.53125 6.390625 29.59375 6.390625 
Q 36.859375 6.390625 41.078125 11.03125 
Q 45.3125 15.671875 45.3125 23.6875 
L 45.3125 54.6875 
L 54.296875 54.6875 
L 54.296875 0 
L 45.3125 0 
L 45.3125 8.40625 
Q 42.046875 3.421875 37.71875 1 
Q 33.40625 -1.421875 27.6875 -1.421875 
Q 18.265625 -1.421875 13.375 4.4375 
Q 8.5 10.296875 8.5 21.578125 
z
M 31.109375 56 
z
" id="DejaVuSans-117"/>
      <path d="M 9.078125 75.984375 
L 18.109375 75.984375 
L 18.109375 31.109375 
L 44.921875 54.6875 
L 56.390625 54.6875 
L 27.390625 29.109375 
L 57.625 0 
L 45.90625 0 
L 18.109375 26.703125 
L 18.109375 0 
L 9.078125 0 
z
" id="DejaVuSans-107"/>
     </defs>
     <g style="fill:#262626;" transform="translate(520.875234 94.806328)scale(0.165 -0.165)">
      <use xlink:href="#DejaVuSans-77"/>
      <use x="86.279297" xlink:href="#DejaVuSans-117"/>
      <use x="149.658203" xlink:href="#DejaVuSans-108"/>
      <use x="177.441406" xlink:href="#DejaVuSans-116"/>
      <use x="216.650391" xlink:href="#DejaVuSans-105"/>
      <use x="244.433594" xlink:href="#DejaVuSans-116"/>
      <use x="283.642578" xlink:href="#DejaVuSans-97"/>
      <use x="344.921875" xlink:href="#DejaVuSans-115"/>
      <use x="397.021484" xlink:href="#DejaVuSans-107"/>
     </g>
    </g>
    <g id="line2d_9">
     <path d="M 474.675234 113.250234 
L 507.675234 113.250234 
" style="fill:none;stroke:#55a868;stroke-linecap:round;stroke-width:2.25;"/>
    </g>
    <g id="line2d_10"/>
    <g id="text_17">
     <!-- Bayes, type II -->
     <defs>
      <path d="M 32.171875 -5.078125 
Q 28.375 -14.84375 24.75 -17.8125 
Q 21.140625 -20.796875 15.09375 -20.796875 
L 7.90625 -20.796875 
L 7.90625 -13.28125 
L 13.1875 -13.28125 
Q 16.890625 -13.28125 18.9375 -11.515625 
Q 21 -9.765625 23.484375 -3.21875 
L 25.09375 0.875 
L 2.984375 54.6875 
L 12.5 54.6875 
L 29.59375 11.921875 
L 46.6875 54.6875 
L 56.203125 54.6875 
z
" id="DejaVuSans-121"/>
      <path d="M 11.71875 12.40625 
L 22.015625 12.40625 
L 22.015625 4 
L 14.015625 -11.625 
L 7.71875 -11.625 
L 11.71875 4 
z
" id="DejaVuSans-44"/>
      <path d="M 9.8125 72.90625 
L 19.671875 72.90625 
L 19.671875 0 
L 9.8125 0 
z
" id="DejaVuSans-73"/>
     </defs>
     <g style="fill:#262626;" transform="translate(520.875234 119.025234)scale(0.165 -0.165)">
      <use xlink:href="#DejaVuSans-66"/>
      <use x="68.603516" xlink:href="#DejaVuSans-97"/>
      <use x="129.882812" xlink:href="#DejaVuSans-121"/>
      <use x="189.0625" xlink:href="#DejaVuSans-101"/>
      <use x="250.585938" xlink:href="#DejaVuSans-115"/>
      <use x="302.685547" xlink:href="#DejaVuSans-44"/>
      <use x="334.472656" xlink:href="#DejaVuSans-32"/>
      <use x="366.259766" xlink:href="#DejaVuSans-116"/>
      <use x="405.46875" xlink:href="#DejaVuSans-121"/>
      <use x="464.648438" xlink:href="#DejaVuSans-112"/>
      <use x="528.125" xlink:href="#DejaVuSans-101"/>
      <use x="589.648438" xlink:href="#DejaVuSans-32"/>
      <use x="621.435547" xlink:href="#DejaVuSans-73"/>
      <use x="650.927734" xlink:href="#DejaVuSans-73"/>
     </g>
    </g>
    <g id="line2d_11">
     <path d="M 474.675234 137.469141 
L 507.675234 137.469141 
" style="fill:none;stroke:#c44e52;stroke-linecap:round;stroke-width:2.25;"/>
    </g>
    <g id="line2d_12"/>
    <g id="text_18">
     <!-- Bayes, exact -->
     <defs>
      <path d="M 54.890625 54.6875 
L 35.109375 28.078125 
L 55.90625 0 
L 45.3125 0 
L 29.390625 21.484375 
L 13.484375 0 
L 2.875 0 
L 24.125 28.609375 
L 4.6875 54.6875 
L 15.28125 54.6875 
L 29.78125 35.203125 
L 44.28125 54.6875 
z
" id="DejaVuSans-120"/>
     </defs>
     <g style="fill:#262626;" transform="translate(520.875234 143.244141)scale(0.165 -0.165)">
      <use xlink:href="#DejaVuSans-66"/>
      <use x="68.603516" xlink:href="#DejaVuSans-97"/>
      <use x="129.882812" xlink:href="#DejaVuSans-121"/>
      <use x="189.0625" xlink:href="#DejaVuSans-101"/>
      <use x="250.585938" xlink:href="#DejaVuSans-115"/>
      <use x="302.685547" xlink:href="#DejaVuSans-44"/>
      <use x="334.472656" xlink:href="#DejaVuSans-32"/>
      <use x="366.259766" xlink:href="#DejaVuSans-101"/>
      <use x="426.033203" xlink:href="#DejaVuSans-120"/>
      <use x="485.212891" xlink:href="#DejaVuSans-97"/>
      <use x="546.492188" xlink:href="#DejaVuSans-99"/>
      <use x="601.472656" xlink:href="#DejaVuSans-116"/>
     </g>
    </g>
   </g>
  </g>
 </g>
 <defs>
  <clipPath id="p974e5bab03">
   <rect height="271.8" width="558" x="90" y="43.2"/>
  </clipPath>
 </defs>
</svg>
