<?xml version="1.0" encoding="utf-8" standalone="no"?>
<!DOCTYPE svg PUBLIC "-//W3C//DTD SVG 1.1//EN"
  "http://www.w3.org/Graphics/SVG/1.1/DTD/svg11.dtd">
<!-- Created with matplotlib (https://matplotlib.org/) -->
<svg height="252.283465pt" version="1.1" viewBox="0 0 720 252.283465" width="720pt" xmlns="http://www.w3.org/2000/svg" xmlns:xlink="http://www.w3.org/1999/xlink">
 <defs>
  <style type="text/css">
*{stroke-linecap:butt;stroke-linejoin:round;}
  </style>
 </defs>
 <g id="figure_1">
  <g id="patch_1">
   <path d="M 0 252.283465 
L 720 252.283465 
L 720 0 
L 0 0 
z
" style="fill:#ffffff;"/>
  </g>
  <g id="axes_1">
   <g id="patch_2">
    <path d="M 103.285865 199.393693 
L 372.06226 199.393693 
L 372.06226 22.677428 
L 103.285865 22.677428 
z
" style="fill:#ffffff;"/>
   </g>
   <g id="matplotlib.axis_1">
    <g id="xtick_1">
     <g id="text_1">
      <!-- 0 -->
      <defs>
       <path d="M 31.78125 66.40625 
Q 24.171875 66.40625 20.328125 58.90625 
Q 16.5 51.421875 16.5 36.375 
Q 16.5 21.390625 20.328125 13.890625 
Q 24.171875 6.390625 31.78125 6.390625 
Q 39.453125 6.390625 43.28125 13.890625 
Q 47.125 21.390625 47.125 36.375 
Q 47.125 51.421875 43.28125 58.90625 
Q 39.453125 66.40625 31.78125 66.40625 
z
M 31.78125 74.21875 
Q 44.046875 74.21875 50.515625 64.515625 
Q 56.984375 54.828125 56.984375 36.375 
Q 56.984375 17.96875 50.515625 8.265625 
Q 44.046875 -1.421875 31.78125 -1.421875 
Q 19.53125 -1.421875 13.0625 8.265625 
Q 6.59375 17.96875 6.59375 36.375 
Q 6.59375 54.828125 13.0625 64.515625 
Q 19.53125 74.21875 31.78125 74.21875 
z
" id="DejaVuSans-48"/>
      </defs>
      <g style="fill:#262626;" transform="translate(110.253911 224.431115)scale(0.165 -0.165)">
       <use xlink:href="#DejaVuSans-48"/>
      </g>
     </g>
    </g>
    <g id="xtick_2">
     <g id="text_2">
      <!-- 2 -->
      <defs>
       <path d="M 19.1875 8.296875 
L 53.609375 8.296875 
L 53.609375 0 
L 7.328125 0 
L 7.328125 8.296875 
Q 12.9375 14.109375 22.625 23.890625 
Q 32.328125 33.6875 34.8125 36.53125 
Q 39.546875 41.84375 41.421875 45.53125 
Q 43.3125 49.21875 43.3125 52.78125 
Q 43.3125 58.59375 39.234375 62.25 
Q 35.15625 65.921875 28.609375 65.921875 
Q 23.96875 65.921875 18.8125 64.3125 
Q 13.671875 62.703125 7.8125 59.421875 
L 7.8125 69.390625 
Q 13.765625 71.78125 18.9375 73 
Q 24.125 74.21875 28.421875 74.21875 
Q 39.75 74.21875 46.484375 68.546875 
Q 53.21875 62.890625 53.21875 53.421875 
Q 53.21875 48.921875 51.53125 44.890625 
Q 49.859375 40.875 45.40625 35.40625 
Q 44.1875 33.984375 37.640625 27.21875 
Q 31.109375 20.453125 19.1875 8.296875 
z
" id="DejaVuSans-50"/>
      </defs>
      <g style="fill:#262626;" transform="translate(208.039675 224.431115)scale(0.165 -0.165)">
       <use xlink:href="#DejaVuSans-50"/>
      </g>
     </g>
    </g>
    <g id="xtick_3">
     <g id="text_3">
      <!-- 4 -->
      <defs>
       <path d="M 37.796875 64.3125 
L 12.890625 25.390625 
L 37.796875 25.390625 
z
M 35.203125 72.90625 
L 47.609375 72.90625 
L 47.609375 25.390625 
L 58.015625 25.390625 
L 58.015625 17.1875 
L 47.609375 17.1875 
L 47.609375 0 
L 37.796875 0 
L 37.796875 17.1875 
L 4.890625 17.1875 
L 4.890625 26.703125 
z
" id="DejaVuSans-52"/>
      </defs>
      <g style="fill:#262626;" transform="translate(305.825439 224.431115)scale(0.165 -0.165)">
       <use xlink:href="#DejaVuSans-52"/>
      </g>
     </g>
    </g>
    <g id="text_4">
     <!-- Epoch -->
     <defs>
      <path d="M 9.8125 72.90625 
L 55.90625 72.90625 
L 55.90625 64.59375 
L 19.671875 64.59375 
L 19.671875 43.015625 
L 54.390625 43.015625 
L 54.390625 34.71875 
L 19.671875 34.71875 
L 19.671875 8.296875 
L 56.78125 8.296875 
L 56.78125 0 
L 9.8125 0 
z
" id="DejaVuSans-69"/>
      <path d="M 18.109375 8.203125 
L 18.109375 -20.796875 
L 9.078125 -20.796875 
L 9.078125 54.6875 
L 18.109375 54.6875 
L 18.109375 46.390625 
Q 20.953125 51.265625 25.265625 53.625 
Q 29.59375 56 35.59375 56 
Q 45.5625 56 51.78125 48.09375 
Q 58.015625 40.1875 58.015625 27.296875 
Q 58.015625 14.40625 51.78125 6.484375 
Q 45.5625 -1.421875 35.59375 -1.421875 
Q 29.59375 -1.421875 25.265625 0.953125 
Q 20.953125 3.328125 18.109375 8.203125 
z
M 48.6875 27.296875 
Q 48.6875 37.203125 44.609375 42.84375 
Q 40.53125 48.484375 33.40625 48.484375 
Q 26.265625 48.484375 22.1875 42.84375 
Q 18.109375 37.203125 18.109375 27.296875 
Q 18.109375 17.390625 22.1875 11.75 
Q 26.265625 6.109375 33.40625 6.109375 
Q 40.53125 6.109375 44.609375 11.75 
Q 48.6875 17.390625 48.6875 27.296875 
z
" id="DejaVuSans-112"/>
      <path d="M 30.609375 48.390625 
Q 23.390625 48.390625 19.1875 42.75 
Q 14.984375 37.109375 14.984375 27.296875 
Q 14.984375 17.484375 19.15625 11.84375 
Q 23.34375 6.203125 30.609375 6.203125 
Q 37.796875 6.203125 41.984375 11.859375 
Q 46.1875 17.53125 46.1875 27.296875 
Q 46.1875 37.015625 41.984375 42.703125 
Q 37.796875 48.390625 30.609375 48.390625 
z
M 30.609375 56 
Q 42.328125 56 49.015625 48.375 
Q 55.71875 40.765625 55.71875 27.296875 
Q 55.71875 13.875 49.015625 6.21875 
Q 42.328125 -1.421875 30.609375 -1.421875 
Q 18.84375 -1.421875 12.171875 6.21875 
Q 5.515625 13.875 5.515625 27.296875 
Q 5.515625 40.765625 12.171875 48.375 
Q 18.84375 56 30.609375 56 
z
" id="DejaVuSans-111"/>
      <path d="M 48.78125 52.59375 
L 48.78125 44.1875 
Q 44.96875 46.296875 41.140625 47.34375 
Q 37.3125 48.390625 33.40625 48.390625 
Q 24.65625 48.390625 19.8125 42.84375 
Q 14.984375 37.3125 14.984375 27.296875 
Q 14.984375 17.28125 19.8125 11.734375 
Q 24.65625 6.203125 33.40625 6.203125 
Q 37.3125 6.203125 41.140625 7.25 
Q 44.96875 8.296875 48.78125 10.40625 
L 48.78125 2.09375 
Q 45.015625 0.34375 40.984375 -0.53125 
Q 36.96875 -1.421875 32.421875 -1.421875 
Q 20.0625 -1.421875 12.78125 6.34375 
Q 5.515625 14.109375 5.515625 27.296875 
Q 5.515625 40.671875 12.859375 48.328125 
Q 20.21875 56 33.015625 56 
Q 37.15625 56 41.109375 55.140625 
Q 45.0625 54.296875 48.78125 52.59375 
z
" id="DejaVuSans-99"/>
      <path d="M 54.890625 33.015625 
L 54.890625 0 
L 45.90625 0 
L 45.90625 32.71875 
Q 45.90625 40.484375 42.875 44.328125 
Q 39.84375 48.1875 33.796875 48.1875 
Q 26.515625 48.1875 22.3125 43.546875 
Q 18.109375 38.921875 18.109375 30.90625 
L 18.109375 0 
L 9.078125 0 
L 9.078125 75.984375 
L 18.109375 75.984375 
L 18.109375 46.1875 
Q 21.34375 51.125 25.703125 53.5625 
Q 30.078125 56 35.796875 56 
Q 45.21875 56 50.046875 50.171875 
Q 54.890625 44.34375 54.890625 33.015625 
z
" id="DejaVuSans-104"/>
     </defs>
     <g style="fill:#262626;" transform="translate(210.114375 245.539787)scale(0.18 -0.18)">
      <use xlink:href="#DejaVuSans-69"/>
      <use x="63.183594" xlink:href="#DejaVuSans-112"/>
      <use x="126.660156" xlink:href="#DejaVuSans-111"/>
      <use x="187.841797" xlink:href="#DejaVuSans-99"/>
      <use x="242.822266" xlink:href="#DejaVuSans-104"/>
     </g>
    </g>
    <g id="text_5">
     <!-- 1e4 -->
     <defs>
      <path d="M 12.40625 8.296875 
L 28.515625 8.296875 
L 28.515625 63.921875 
L 10.984375 60.40625 
L 10.984375 69.390625 
L 28.421875 72.90625 
L 38.28125 72.90625 
L 38.28125 8.296875 
L 54.390625 8.296875 
L 54.390625 0 
L 12.40625 0 
z
" id="DejaVuSans-49"/>
      <path d="M 56.203125 29.59375 
L 56.203125 25.203125 
L 14.890625 25.203125 
Q 15.484375 15.921875 20.484375 11.0625 
Q 25.484375 6.203125 34.421875 6.203125 
Q 39.59375 6.203125 44.453125 7.46875 
Q 49.3125 8.734375 54.109375 11.28125 
L 54.109375 2.78125 
Q 49.265625 0.734375 44.1875 -0.34375 
Q 39.109375 -1.421875 33.890625 -1.421875 
Q 20.796875 -1.421875 13.15625 6.1875 
Q 5.515625 13.8125 5.515625 26.8125 
Q 5.515625 40.234375 12.765625 48.109375 
Q 20.015625 56 32.328125 56 
Q 43.359375 56 49.78125 48.890625 
Q 56.203125 41.796875 56.203125 29.59375 
z
M 47.21875 32.234375 
Q 47.125 39.59375 43.09375 43.984375 
Q 39.0625 48.390625 32.421875 48.390625 
Q 24.90625 48.390625 20.390625 44.140625 
Q 15.875 39.890625 15.1875 32.171875 
z
" id="DejaVuSans-101"/>
     </defs>
     <g style="fill:#262626;" transform="translate(340.913354 243.400021)scale(0.165 -0.165)">
      <use xlink:href="#DejaVuSans-49"/>
      <use x="63.623047" xlink:href="#DejaVuSans-101"/>
      <use x="125.146484" xlink:href="#DejaVuSans-52"/>
     </g>
    </g>
   </g>
   <g id="matplotlib.axis_2">
    <g id="ytick_1">
     <g id="text_6">
      <!-- $\mathdefault{10^{-2}}$ -->
      <defs>
       <path d="M 10.59375 35.5 
L 73.1875 35.5 
L 73.1875 27.203125 
L 10.59375 27.203125 
z
" id="DejaVuSans-8722"/>
      </defs>
      <g style="fill:#262626;" transform="translate(52.010865 28.946138)scale(0.165 -0.165)">
       <use transform="translate(0 0.765625)" xlink:href="#DejaVuSans-49"/>
       <use transform="translate(63.623047 0.765625)" xlink:href="#DejaVuSans-48"/>
       <use transform="translate(128.203125 39.046875)scale(0.7)" xlink:href="#DejaVuSans-8722"/>
       <use transform="translate(186.855469 39.046875)scale(0.7)" xlink:href="#DejaVuSans-50"/>
      </g>
     </g>
    </g>
    <g id="ytick_2">
     <g id="text_7">
      <!-- $\mathdefault{2\times10^{-3}}$ -->
      <defs>
       <path d="M 70.125 53.71875 
L 47.796875 31.296875 
L 70.125 8.984375 
L 64.3125 3.078125 
L 41.890625 25.484375 
L 19.484375 3.078125 
L 13.71875 8.984375 
L 35.984375 31.296875 
L 13.71875 53.71875 
L 19.484375 59.625 
L 41.890625 37.203125 
L 64.3125 59.625 
z
" id="DejaVuSans-215"/>
       <path d="M 40.578125 39.3125 
Q 47.65625 37.796875 51.625 33 
Q 55.609375 28.21875 55.609375 21.1875 
Q 55.609375 10.40625 48.1875 4.484375 
Q 40.765625 -1.421875 27.09375 -1.421875 
Q 22.515625 -1.421875 17.65625 -0.515625 
Q 12.796875 0.390625 7.625 2.203125 
L 7.625 11.71875 
Q 11.71875 9.328125 16.59375 8.109375 
Q 21.484375 6.890625 26.8125 6.890625 
Q 36.078125 6.890625 40.9375 10.546875 
Q 45.796875 14.203125 45.796875 21.1875 
Q 45.796875 27.640625 41.28125 31.265625 
Q 36.765625 34.90625 28.71875 34.90625 
L 20.21875 34.90625 
L 20.21875 43.015625 
L 29.109375 43.015625 
Q 36.375 43.015625 40.234375 45.921875 
Q 44.09375 48.828125 44.09375 54.296875 
Q 44.09375 59.90625 40.109375 62.90625 
Q 36.140625 65.921875 28.71875 65.921875 
Q 24.65625 65.921875 20.015625 65.03125 
Q 15.375 64.15625 9.8125 62.3125 
L 9.8125 71.09375 
Q 15.4375 72.65625 20.34375 73.4375 
Q 25.25 74.21875 29.59375 74.21875 
Q 40.828125 74.21875 47.359375 69.109375 
Q 53.90625 64.015625 53.90625 55.328125 
Q 53.90625 49.265625 50.4375 45.09375 
Q 46.96875 40.921875 40.578125 39.3125 
z
" id="DejaVuSans-51"/>
      </defs>
      <g style="fill:#262626;" transform="translate(24.420865 205.662404)scale(0.165 -0.165)">
       <use transform="translate(0 0.765625)" xlink:href="#DejaVuSans-50"/>
       <use transform="translate(83.105469 0.765625)" xlink:href="#DejaVuSans-215"/>
       <use transform="translate(186.376953 0.765625)" xlink:href="#DejaVuSans-49"/>
       <use transform="translate(250 0.765625)" xlink:href="#DejaVuSans-48"/>
       <use transform="translate(314.580078 39.046875)scale(0.7)" xlink:href="#DejaVuSans-8722"/>
       <use transform="translate(373.232422 39.046875)scale(0.7)" xlink:href="#DejaVuSans-51"/>
      </g>
     </g>
    </g>
    <g id="ytick_3">
     <g id="text_8">
      <!-- $\mathdefault{3\times10^{-3}}$ -->
      <g style="fill:#262626;" transform="translate(24.420865 161.14234)scale(0.165 -0.165)">
       <use transform="translate(0 0.765625)" xlink:href="#DejaVuSans-51"/>
       <use transform="translate(83.105469 0.765625)" xlink:href="#DejaVuSans-215"/>
       <use transform="translate(186.376953 0.765625)" xlink:href="#DejaVuSans-49"/>
       <use transform="translate(250 0.765625)" xlink:href="#DejaVuSans-48"/>
       <use transform="translate(314.580078 39.046875)scale(0.7)" xlink:href="#DejaVuSans-8722"/>
       <use transform="translate(373.232422 39.046875)scale(0.7)" xlink:href="#DejaVuSans-51"/>
      </g>
     </g>
    </g>
    <g id="ytick_4">
     <g id="text_9">
      <!-- $\mathdefault{4\times10^{-3}}$ -->
      <g style="fill:#262626;" transform="translate(24.420865 129.554851)scale(0.165 -0.165)">
       <use transform="translate(0 0.765625)" xlink:href="#DejaVuSans-52"/>
       <use transform="translate(83.105469 0.765625)" xlink:href="#DejaVuSans-215"/>
       <use transform="translate(186.376953 0.765625)" xlink:href="#DejaVuSans-49"/>
       <use transform="translate(250 0.765625)" xlink:href="#DejaVuSans-48"/>
       <use transform="translate(314.580078 39.046875)scale(0.7)" xlink:href="#DejaVuSans-8722"/>
       <use transform="translate(373.232422 39.046875)scale(0.7)" xlink:href="#DejaVuSans-51"/>
      </g>
     </g>
    </g>
    <g id="ytick_5"/>
    <g id="ytick_6">
     <g id="text_10">
      <!-- $\mathdefault{6\times10^{-3}}$ -->
      <defs>
       <path d="M 33.015625 40.375 
Q 26.375 40.375 22.484375 35.828125 
Q 18.609375 31.296875 18.609375 23.390625 
Q 18.609375 15.53125 22.484375 10.953125 
Q 26.375 6.390625 33.015625 6.390625 
Q 39.65625 6.390625 43.53125 10.953125 
Q 47.40625 15.53125 47.40625 23.390625 
Q 47.40625 31.296875 43.53125 35.828125 
Q 39.65625 40.375 33.015625 40.375 
z
M 52.59375 71.296875 
L 52.59375 62.3125 
Q 48.875 64.0625 45.09375 64.984375 
Q 41.3125 65.921875 37.59375 65.921875 
Q 27.828125 65.921875 22.671875 59.328125 
Q 17.53125 52.734375 16.796875 39.40625 
Q 19.671875 43.65625 24.015625 45.921875 
Q 28.375 48.1875 33.59375 48.1875 
Q 44.578125 48.1875 50.953125 41.515625 
Q 57.328125 34.859375 57.328125 23.390625 
Q 57.328125 12.15625 50.6875 5.359375 
Q 44.046875 -1.421875 33.015625 -1.421875 
Q 20.359375 -1.421875 13.671875 8.265625 
Q 6.984375 17.96875 6.984375 36.375 
Q 6.984375 53.65625 15.1875 63.9375 
Q 23.390625 74.21875 37.203125 74.21875 
Q 40.921875 74.21875 44.703125 73.484375 
Q 48.484375 72.75 52.59375 71.296875 
z
" id="DejaVuSans-54"/>
      </defs>
      <g style="fill:#262626;" transform="translate(24.420865 85.034787)scale(0.165 -0.165)">
       <use transform="translate(0 0.765625)" xlink:href="#DejaVuSans-54"/>
       <use transform="translate(83.105469 0.765625)" xlink:href="#DejaVuSans-215"/>
       <use transform="translate(186.376953 0.765625)" xlink:href="#DejaVuSans-49"/>
       <use transform="translate(250 0.765625)" xlink:href="#DejaVuSans-48"/>
       <use transform="translate(314.580078 39.046875)scale(0.7)" xlink:href="#DejaVuSans-8722"/>
       <use transform="translate(373.232422 39.046875)scale(0.7)" xlink:href="#DejaVuSans-51"/>
      </g>
     </g>
    </g>
    <g id="ytick_7"/>
    <g id="ytick_8"/>
    <g id="ytick_9"/>
    <g id="text_11">
     <!-- MSE -->
     <defs>
      <path d="M 9.8125 72.90625 
L 24.515625 72.90625 
L 43.109375 23.296875 
L 61.8125 72.90625 
L 76.515625 72.90625 
L 76.515625 0 
L 66.890625 0 
L 66.890625 64.015625 
L 48.09375 14.015625 
L 38.1875 14.015625 
L 19.390625 64.015625 
L 19.390625 0 
L 9.8125 0 
z
" id="DejaVuSans-77"/>
      <path d="M 53.515625 70.515625 
L 53.515625 60.890625 
Q 47.90625 63.578125 42.921875 64.890625 
Q 37.9375 66.21875 33.296875 66.21875 
Q 25.25 66.21875 20.875 63.09375 
Q 16.5 59.96875 16.5 54.203125 
Q 16.5 49.359375 19.40625 46.890625 
Q 22.3125 44.4375 30.421875 42.921875 
L 36.375 41.703125 
Q 47.40625 39.59375 52.65625 34.296875 
Q 57.90625 29 57.90625 20.125 
Q 57.90625 9.515625 50.796875 4.046875 
Q 43.703125 -1.421875 29.984375 -1.421875 
Q 24.8125 -1.421875 18.96875 -0.25 
Q 13.140625 0.921875 6.890625 3.21875 
L 6.890625 13.375 
Q 12.890625 10.015625 18.65625 8.296875 
Q 24.421875 6.59375 29.984375 6.59375 
Q 38.421875 6.59375 43.015625 9.90625 
Q 47.609375 13.234375 47.609375 19.390625 
Q 47.609375 24.75 44.3125 27.78125 
Q 41.015625 30.8125 33.5 32.328125 
L 27.484375 33.5 
Q 16.453125 35.6875 11.515625 40.375 
Q 6.59375 45.0625 6.59375 53.421875 
Q 6.59375 63.09375 13.40625 68.65625 
Q 20.21875 74.21875 32.171875 74.21875 
Q 37.3125 74.21875 42.625 73.28125 
Q 47.953125 72.359375 53.515625 70.515625 
z
" id="DejaVuSans-83"/>
     </defs>
     <g style="fill:#262626;" transform="translate(16.677427 130.201342)rotate(-90)scale(0.18 -0.18)">
      <use xlink:href="#DejaVuSans-77"/>
      <use x="86.279297" xlink:href="#DejaVuSans-83"/>
      <use x="149.755859" xlink:href="#DejaVuSans-69"/>
     </g>
    </g>
   </g>
   <g id="line2d_1">
    <path clip-path="url(#pec70b7fe32)" d="M 116.256875 -1 
L 116.480832 40.614082 
L 116.603064 16.3195 
L 116.847528 62.545232 
L 117.091993 73.424434 
L 117.214225 68.137867 
L 117.336457 80.773919 
L 117.580921 76.355151 
L 117.703154 99.611116 
L 117.825386 98.626953 
L 117.947618 106.557397 
L 118.06985 99.125287 
L 118.436547 110.181329 
L 118.558779 108.343217 
L 118.681011 114.250861 
L 118.803243 111.511489 
L 118.925476 113.69569 
L 119.047708 118.731909 
L 119.16994 119.165269 
L 119.292172 117.39846 
L 119.536637 122.712734 
L 119.658869 122.343705 
L 119.781101 121.078774 
L 119.903333 121.469339 
L 120.147798 122.68475 
L 120.27003 121.044791 
L 120.514494 124.658753 
L 120.636726 124.084595 
L 120.758959 124.855031 
L 121.003423 127.359948 
L 121.125655 127.115537 
L 121.37012 129.118928 
L 121.492352 129.299166 
L 122.103513 131.811609 
L 122.347977 132.43142 
L 122.592442 133.223526 
L 122.836906 133.911851 
L 123.325835 135.189951 
L 124.18146 137.621984 
L 125.159318 140.308719 
L 126.748337 144.012422 
L 128.215123 146.825474 
L 129.926374 149.56852 
L 139.582718 163.822481 
L 140.927272 165.232309 
L 142.271827 166.345087 
L 143.860845 167.364082 
L 145.694328 168.266868 
L 147.894508 169.092611 
L 150.461384 169.813932 
L 153.394957 170.404091 
L 156.939691 170.878458 
L 161.584515 171.267961 
L 168.918447 171.644672 
L 177.719166 171.885031 
L 180.041578 171.918297 
L 180.16381 165.296298 
L 180.286042 140.952125 
L 180.530507 161.742869 
L 180.652739 155.136407 
L 180.897203 159.110397 
L 181.019436 156.392718 
L 181.2639 163.357563 
L 181.386132 161.041482 
L 181.508364 161.496938 
L 181.752829 163.101058 
L 181.875061 161.544405 
L 181.997293 161.429471 
L 182.36399 165.158334 
L 182.608454 164.801136 
L 182.975151 165.751156 
L 183.46408 166.494876 
L 183.586312 166.463724 
L 184.075241 167.095417 
L 184.930866 167.985136 
L 187.253278 169.815504 
L 188.842297 170.748123 
L 190.431315 171.443172 
L 192.264798 172.004919 
L 194.464978 172.434388 
L 197.276319 172.744752 
L 201.554446 172.965405 
L 209.01061 173.096198 
L 229.178924 173.161627 
L 359.845151 173.341281 
L 359.845151 173.341281 
" style="fill:none;stroke:#4c72b0;stroke-linecap:round;stroke-width:2.25;"/>
   </g>
   <g id="line2d_2">
    <path clip-path="url(#pec70b7fe32)" d="M 116.240291 -1 
L 116.358599 45.162452 
L 116.480832 11.506592 
L 116.725296 60.95168 
L 116.847528 69.559986 
L 116.96976 66.464313 
L 117.091993 79.378668 
L 117.214225 68.099112 
L 117.458689 95.038395 
L 117.580921 107.157082 
L 117.703154 99.194845 
L 117.825386 102.472301 
L 118.06985 110.668889 
L 118.314315 120.064298 
L 118.436547 115.851894 
L 118.558779 122.064365 
L 118.681011 122.268275 
L 118.803243 121.04176 
L 118.925476 124.718916 
L 119.047708 120.369492 
L 119.292172 127.475685 
L 119.414404 128.737722 
L 119.536637 132.023112 
L 119.658869 131.683652 
L 120.392262 142.04112 
L 121.247887 152.078356 
L 121.614584 154.630325 
L 121.981281 158.576214 
L 123.081371 169.143061 
L 123.448067 170.552929 
L 123.692532 171.085758 
L 123.814764 171.0142 
L 124.059228 171.410842 
L 124.18146 171.367409 
L 124.425925 171.881121 
L 124.670389 171.527219 
L 124.792621 171.695683 
L 125.159318 172.640292 
L 125.28155 172.615279 
L 125.648247 172.007947 
L 125.770479 172.144146 
L 126.014943 171.740856 
L 126.137176 172.000019 
L 126.259408 171.618376 
L 126.38164 172.055909 
L 126.503872 171.889956 
L 126.748337 172.134722 
L 126.870569 171.912545 
L 126.992801 172.219638 
L 127.115033 171.830341 
L 127.237266 172.17372 
L 127.359498 171.971208 
L 127.603962 172.116165 
L 127.970659 165.398189 
L 128.092891 159.305749 
L 128.337355 165.5481 
L 128.58182 167.43736 
L 128.826284 165.543648 
L 129.070749 167.282417 
L 129.315213 168.883334 
L 129.437445 167.815275 
L 129.926374 170.642868 
L 130.048606 170.083967 
L 130.415303 171.212124 
L 130.537535 171.325152 
L 130.659767 171.182185 
L 130.781999 171.351804 
L 130.904232 171.744204 
L 131.026464 171.616808 
L 131.148696 171.915302 
L 131.270928 171.745914 
L 131.39316 172.303892 
L 131.515393 171.968858 
L 131.759857 172.493381 
L 131.882089 172.318904 
L 132.126554 172.704257 
L 132.248786 172.830293 
L 132.371018 172.776083 
L 132.49325 173.068275 
L 132.615483 173.012732 
L 132.859947 173.278495 
L 132.982179 173.130045 
L 133.471108 173.600312 
L 133.59334 173.613158 
L 133.715572 173.372017 
L 133.837805 173.722029 
L 133.960037 173.378522 
L 134.082269 173.736923 
L 134.204501 173.552348 
L 134.448966 173.708361 
L 134.571198 173.60486 
L 134.69343 173.80307 
L 134.815662 173.612572 
L 134.937894 173.819595 
L 135.060127 173.63661 
L 135.182359 173.841997 
L 135.304591 173.656538 
L 135.426823 173.8501 
L 135.549055 173.698377 
L 135.79352 173.820263 
L 135.915752 173.676581 
L 136.037984 173.97608 
L 136.160216 173.622367 
L 136.282449 173.911551 
L 136.526913 173.717638 
L 136.649145 174.003139 
L 136.771377 173.642737 
L 136.89361 173.960555 
L 137.138074 173.711851 
L 137.260306 174.015606 
L 137.382539 173.675448 
L 137.627003 173.938788 
L 137.749235 173.640482 
L 137.871467 173.964033 
L 137.9937 173.888314 
L 138.115932 173.659268 
L 138.238164 173.977479 
L 138.482628 173.662018 
L 138.604861 173.951024 
L 138.849325 173.66037 
L 138.971557 173.954289 
L 139.093789 173.888264 
L 139.216022 173.62176 
L 139.460486 173.983756 
L 139.582718 173.634699 
L 139.70495 173.729365 
L 139.827183 174.034852 
L 140.071647 173.706004 
L 140.193879 173.643171 
L 140.316111 173.923359 
L 140.438344 173.875254 
L 140.682808 173.614735 
L 140.80504 173.949169 
L 141.171737 173.630231 
L 141.416201 173.856472 
L 141.538433 173.857789 
L 141.782898 173.525107 
L 141.90513 173.597937 
L 142.027362 173.910761 
L 142.149594 173.81759 
L 142.394059 173.473481 
L 142.760756 173.788956 
L 143.127452 173.439447 
L 143.494149 173.782042 
L 143.983078 173.304587 
L 144.472006 173.607336 
L 144.960935 173.220982 
L 145.572096 173.452789 
L 145.938793 173.30496 
L 146.672186 172.795936 
L 147.038883 172.858175 
L 147.405579 172.873023 
L 147.650044 172.875894 
L 148.138973 172.613015 
L 148.627901 172.393028 
L 148.872366 172.220487 
L 148.994598 172.251849 
L 149.483527 171.910385 
L 149.972456 171.948169 
L 150.094688 172.029694 
L 150.339152 171.700054 
L 150.583617 171.357784 
L 150.950313 171.580755 
L 151.194778 171.14582 
L 151.31701 171.000726 
L 151.561474 171.123773 
L 151.683706 171.049366 
L 151.928171 170.593602 
L 152.050403 170.833817 
L 152.294867 170.628575 
L 152.4171 170.289634 
L 152.661564 170.533026 
L 152.783796 170.111954 
L 153.150493 170.144217 
L 153.272725 169.706916 
L 153.394957 169.953486 
L 153.51719 169.890204 
L 153.639422 169.534304 
L 153.761654 169.698293 
L 154.006118 169.293356 
L 154.128351 169.485553 
L 154.372815 169.136589 
L 154.495047 169.289586 
L 154.617279 168.843435 
L 154.739512 168.957372 
L 154.983976 168.66916 
L 155.106208 168.807981 
L 155.22844 168.420682 
L 155.350673 168.601032 
L 155.472905 168.239405 
L 155.595137 168.406183 
L 155.717369 168.15877 
L 155.839601 168.234939 
L 155.961834 167.993625 
L 156.084066 168.005524 
L 156.32853 167.757765 
L 156.695227 167.513949 
L 156.817459 167.457159 
L 156.939691 167.214791 
L 157.061923 167.312676 
L 157.184156 167.080044 
L 157.306388 167.251222 
L 157.42862 166.936741 
L 157.550852 167.084444 
L 157.673084 166.716284 
L 157.795317 166.862104 
L 158.039781 166.49625 
L 158.162013 166.618094 
L 158.284246 166.241992 
L 158.406478 166.487847 
L 158.52871 166.14331 
L 158.650942 166.135539 
L 158.895407 165.899402 
L 159.017639 166.031603 
L 159.6288 165.312219 
L 159.751032 165.514051 
L 159.995496 165.068213 
L 160.117729 165.18616 
L 160.239961 164.889731 
L 160.362193 164.958275 
L 160.484425 164.88623 
L 160.72889 164.972802 
L 160.851122 164.866134 
L 161.095586 164.936073 
L 161.217818 164.290684 
L 161.340051 164.476024 
L 161.828979 161.313509 
L 162.073444 161.396603 
L 162.317908 161.324923 
L 162.684605 161.775968 
L 162.806837 161.717998 
L 163.051302 162.017597 
L 163.173534 162.029575 
L 163.662463 162.407131 
L 165.007017 163.546396 
L 165.862642 164.020794 
L 167.329429 164.502775 
L 168.918447 164.738805 
L 171.118627 164.84033 
L 173.929968 164.740315 
L 176.130147 164.537229 
L 176.619076 164.289208 
L 176.741308 164.062517 
L 176.863541 164.0808 
L 177.108005 163.735656 
L 177.96363 163.369237 
L 178.574792 163.222188 
L 178.697024 163.425434 
L 179.552649 160.378687 
L 179.797114 160.300899 
L 183.953009 162.183014 
L 185.542027 162.467667 
L 187.986671 162.644529 
L 191.042476 162.626585 
L 191.77587 162.587305 
L 191.898102 162.716399 
L 192.264798 160.450845 
L 192.753727 157.902964 
L 192.998192 157.64477 
L 193.120424 157.632386 
L 194.953907 159.00137 
L 196.053997 159.493636 
L 197.276319 159.902427 
L 199.354266 160.391509 
L 201.921143 160.762538 
L 205.832573 161.076399 
L 211.088558 161.249903 
L 218.300258 161.23838 
L 226.489816 161.033992 
L 227.345441 161.047576 
L 227.467673 161.242299 
L 228.323299 157.402344 
L 228.689995 156.951342 
L 228.93446 156.877124 
L 229.912317 157.404184 
L 230.523479 157.782773 
L 231.379104 158.134928 
L 232.968123 158.550136 
L 235.412767 158.930511 
L 239.324197 159.300727 
L 244.580182 159.579117 
L 251.791882 159.727501 
L 264.870728 159.653297 
L 265.115192 159.378306 
L 265.604121 157.18608 
L 265.970818 156.061878 
L 266.337515 155.603803 
L 266.826443 155.389817 
L 267.315372 155.57627 
L 268.048765 156.020485 
L 269.148855 156.603433 
L 270.248945 156.960409 
L 272.082428 157.31739 
L 275.260465 157.658989 
L 280.883147 158.013623 
L 289.439401 158.350678 
L 301.295925 158.58219 
L 316.574951 158.653 
L 320.853078 158.748863 
L 320.97531 158.250654 
L 321.097542 158.41121 
L 321.708703 156.280227 
L 322.564329 155.488415 
L 323.786651 155.806923 
L 324.886741 156.219176 
L 326.597991 156.620843 
L 328.675939 156.871475 
L 333.198531 157.152492 
L 343.466036 157.52871 
L 357.03381 157.789572 
L 359.845151 157.819303 
L 359.845151 157.819303 
" style="fill:none;stroke:#dd8452;stroke-linecap:round;stroke-width:2.25;"/>
   </g>
   <g id="patch_3">
    <path d="M 103.285865 199.393693 
L 103.285865 22.677428 
" style="fill:none;stroke:#262626;stroke-linecap:square;stroke-linejoin:miter;stroke-width:1.875;"/>
   </g>
   <g id="patch_4">
    <path d="M 372.06226 199.393693 
L 372.06226 22.677428 
" style="fill:none;stroke:#262626;stroke-linecap:square;stroke-linejoin:miter;stroke-width:1.875;"/>
   </g>
   <g id="patch_5">
    <path d="M 103.285865 199.393693 
L 372.06226 199.393693 
" style="fill:none;stroke:#262626;stroke-linecap:square;stroke-linejoin:miter;stroke-width:1.875;"/>
   </g>
   <g id="patch_6">
    <path d="M 103.285865 22.677428 
L 372.06226 22.677428 
" style="fill:none;stroke:#262626;stroke-linecap:square;stroke-linejoin:miter;stroke-width:1.875;"/>
   </g>
   <g id="text_12">
    <!-- $\mathcal{L}_{MSE}$ -->
    <defs>
     <path d="M 63.59375 14.296875 
L 65.296875 12.5 
Q 52.296875 -0.703125 37.703125 -0.703125 
Q 33.703125 -0.703125 28.90625 0.40625 
Q 21.796875 1.90625 17.90625 1.90625 
Q 15.703125 1.90625 10.5 0.953125 
Q 5.296875 0 3 0 
L 3.59375 2.40625 
Q 9.09375 2.40625 11.40625 11.703125 
L 18.40625 40.09375 
Q 20.09375 47 23.6875 52.390625 
Q 27.296875 57.796875 31.640625 60.84375 
Q 36 63.90625 40.390625 65.453125 
Q 44.796875 67 48.796875 67 
Q 53.796875 67 56.140625 63.796875 
Q 58.5 60.59375 58.5 56 
Q 58.5 52.296875 56.140625 50 
Q 53.796875 47.703125 50.40625 47.703125 
Q 48.203125 47.703125 46.796875 49.203125 
Q 45.40625 50.703125 45.40625 52.796875 
Q 45.40625 54.40625 46.203125 55.5 
Q 47 56.59375 47.890625 56.9375 
Q 48.796875 57.296875 49.59375 57.890625 
Q 50.40625 58.5 50.40625 59.203125 
Q 50.40625 63 44.59375 63 
Q 39.40625 63 36.09375 59.140625 
Q 32.796875 55.296875 31.09375 48.9375 
Q 29.40625 42.59375 28.046875 35.6875 
Q 26.703125 28.796875 24.203125 21.296875 
Q 21.703125 13.796875 18.09375 9.203125 
L 18.09375 8.796875 
Q 21.296875 11 29.5 11 
Q 34.796875 11 38.4375 8.5 
Q 42.09375 6 46.296875 6 
Q 54.796875 6 63.59375 14.296875 
z
" id="STIXNonUnicode-Italic-57912"/>
     <path d="M 16.890625 72.90625 
L 31.6875 72.90625 
L 40.1875 23.78125 
L 68.40625 72.90625 
L 83.59375 72.90625 
L 69.390625 0 
L 59.8125 0 
L 72.21875 63.921875 
L 43.609375 14.015625 
L 33.984375 14.015625 
L 24.703125 64.109375 
L 12.3125 0 
L 2.6875 0 
z
" id="DejaVuSans-Oblique-77"/>
     <path d="M 60.296875 70.515625 
L 58.40625 60.890625 
Q 53.46875 63.53125 48.609375 64.875 
Q 43.75 66.21875 39.203125 66.21875 
Q 30.375 66.21875 25.140625 62.359375 
Q 19.921875 58.5 19.921875 52.09375 
Q 19.921875 48.578125 21.84375 46.703125 
Q 23.78125 44.828125 31.78125 42.671875 
L 37.703125 41.21875 
Q 47.703125 38.625 51.609375 34.640625 
Q 55.515625 30.671875 55.515625 23.484375 
Q 55.515625 12.453125 46.84375 5.515625 
Q 38.1875 -1.421875 24.03125 -1.421875 
Q 18.21875 -1.421875 12.359375 -0.265625 
Q 6.5 0.875 0.59375 3.21875 
L 2.59375 13.375 
Q 8.015625 10.015625 13.453125 8.296875 
Q 18.890625 6.59375 24.3125 6.59375 
Q 33.546875 6.59375 39.109375 10.6875 
Q 44.671875 14.796875 44.671875 21.390625 
Q 44.671875 25.78125 42.453125 28.046875 
Q 40.234375 30.328125 32.90625 32.171875 
L 27 33.6875 
Q 16.890625 36.328125 13.203125 39.765625 
Q 9.515625 43.21875 9.515625 49.421875 
Q 9.515625 60.296875 17.890625 67.25 
Q 26.265625 74.21875 39.703125 74.21875 
Q 44.921875 74.21875 50.046875 73.28125 
Q 55.171875 72.359375 60.296875 70.515625 
z
" id="DejaVuSans-Oblique-83"/>
     <path d="M 16.890625 72.90625 
L 62.984375 72.90625 
L 61.375 64.59375 
L 25.09375 64.59375 
L 20.90625 43.015625 
L 55.71875 43.015625 
L 54.109375 34.71875 
L 19.28125 34.71875 
L 14.203125 8.296875 
L 51.3125 8.296875 
L 49.703125 0 
L 2.6875 0 
z
" id="DejaVuSans-Oblique-69"/>
    </defs>
    <g style="fill:#262626;" transform="translate(217.604062 16.677428)scale(0.18 -0.18)">
     <use xlink:href="#STIXNonUnicode-Italic-57912"/>
     <use transform="translate(70.257019 -16.40625)scale(0.7)" xlink:href="#DejaVuSans-Oblique-77"/>
     <use transform="translate(130.652527 -16.40625)scale(0.7)" xlink:href="#DejaVuSans-Oblique-83"/>
     <use transform="translate(175.086121 -16.40625)scale(0.7)" xlink:href="#DejaVuSans-Oblique-69"/>
    </g>
   </g>
   <g id="legend_1">
    <g id="patch_7">
     <path d="M 226.699838 84.31524 
L 360.51226 84.31524 
Q 363.81226 84.31524 363.81226 81.01524 
L 363.81226 34.227428 
Q 363.81226 30.927428 360.51226 30.927428 
L 226.699838 30.927428 
Q 223.399838 30.927428 223.399838 34.227428 
L 223.399838 81.01524 
Q 223.399838 84.31524 226.699838 84.31524 
z
" style="fill:#ffffff;opacity:0.8;stroke:#cccccc;stroke-linejoin:miter;stroke-width:1.5;"/>
    </g>
    <g id="line2d_3">
     <path d="M 229.999838 44.289849 
L 262.999838 44.289849 
" style="fill:none;stroke:#4c72b0;stroke-linecap:round;stroke-width:2.25;"/>
    </g>
    <g id="line2d_4"/>
    <g id="text_13">
     <!-- $\lambda=1$ -->
     <defs>
      <path d="M 36.71875 67.4375 
L 48.828125 0 
L 39.3125 0 
L 31.84375 40.4375 
L 5.125 0 
L -4.390625 0 
L 29.734375 52.4375 
L 28.03125 62.109375 
Q 26.953125 68.265625 21.734375 68.265625 
L 17.046875 68.265625 
L 18.5 75.984375 
L 24.21875 75.875 
Q 35.203125 75.734375 36.71875 67.4375 
z
" id="DejaVuSans-Oblique-955"/>
      <path d="M 10.59375 45.40625 
L 73.1875 45.40625 
L 73.1875 37.203125 
L 10.59375 37.203125 
z
M 10.59375 25.484375 
L 73.1875 25.484375 
L 73.1875 17.1875 
L 10.59375 17.1875 
z
" id="DejaVuSans-61"/>
     </defs>
     <g style="fill:#262626;" transform="translate(276.199838 50.064849)scale(0.165 -0.165)">
      <use transform="translate(0 0.015625)" xlink:href="#DejaVuSans-Oblique-955"/>
      <use transform="translate(78.662109 0.015625)" xlink:href="#DejaVuSans-61"/>
      <use transform="translate(181.933594 0.015625)" xlink:href="#DejaVuSans-49"/>
     </g>
    </g>
    <g id="line2d_5">
     <path d="M 229.999838 68.508756 
L 262.999838 68.508756 
" style="fill:none;stroke:#dd8452;stroke-linecap:round;stroke-width:2.25;"/>
    </g>
    <g id="line2d_6"/>
    <g id="text_14">
     <!-- Multi-task -->
     <defs>
      <path d="M 8.5 21.578125 
L 8.5 54.6875 
L 17.484375 54.6875 
L 17.484375 21.921875 
Q 17.484375 14.15625 20.5 10.265625 
Q 23.53125 6.390625 29.59375 6.390625 
Q 36.859375 6.390625 41.078125 11.03125 
Q 45.3125 15.671875 45.3125 23.6875 
L 45.3125 54.6875 
L 54.296875 54.6875 
L 54.296875 0 
L 45.3125 0 
L 45.3125 8.40625 
Q 42.046875 3.421875 37.71875 1 
Q 33.40625 -1.421875 27.6875 -1.421875 
Q 18.265625 -1.421875 13.375 4.4375 
Q 8.5 10.296875 8.5 21.578125 
z
M 31.109375 56 
z
" id="DejaVuSans-117"/>
      <path d="M 9.421875 75.984375 
L 18.40625 75.984375 
L 18.40625 0 
L 9.421875 0 
z
" id="DejaVuSans-108"/>
      <path d="M 18.3125 70.21875 
L 18.3125 54.6875 
L 36.8125 54.6875 
L 36.8125 47.703125 
L 18.3125 47.703125 
L 18.3125 18.015625 
Q 18.3125 11.328125 20.140625 9.421875 
Q 21.96875 7.515625 27.59375 7.515625 
L 36.8125 7.515625 
L 36.8125 0 
L 27.59375 0 
Q 17.1875 0 13.234375 3.875 
Q 9.28125 7.765625 9.28125 18.015625 
L 9.28125 47.703125 
L 2.6875 47.703125 
L 2.6875 54.6875 
L 9.28125 54.6875 
L 9.28125 70.21875 
z
" id="DejaVuSans-116"/>
      <path d="M 9.421875 54.6875 
L 18.40625 54.6875 
L 18.40625 0 
L 9.421875 0 
z
M 9.421875 75.984375 
L 18.40625 75.984375 
L 18.40625 64.59375 
L 9.421875 64.59375 
z
" id="DejaVuSans-105"/>
      <path d="M 4.890625 31.390625 
L 31.203125 31.390625 
L 31.203125 23.390625 
L 4.890625 23.390625 
z
" id="DejaVuSans-45"/>
      <path d="M 34.28125 27.484375 
Q 23.390625 27.484375 19.1875 25 
Q 14.984375 22.515625 14.984375 16.5 
Q 14.984375 11.71875 18.140625 8.90625 
Q 21.296875 6.109375 26.703125 6.109375 
Q 34.1875 6.109375 38.703125 11.40625 
Q 43.21875 16.703125 43.21875 25.484375 
L 43.21875 27.484375 
z
M 52.203125 31.203125 
L 52.203125 0 
L 43.21875 0 
L 43.21875 8.296875 
Q 40.140625 3.328125 35.546875 0.953125 
Q 30.953125 -1.421875 24.3125 -1.421875 
Q 15.921875 -1.421875 10.953125 3.296875 
Q 6 8.015625 6 15.921875 
Q 6 25.140625 12.171875 29.828125 
Q 18.359375 34.515625 30.609375 34.515625 
L 43.21875 34.515625 
L 43.21875 35.40625 
Q 43.21875 41.609375 39.140625 45 
Q 35.0625 48.390625 27.6875 48.390625 
Q 23 48.390625 18.546875 47.265625 
Q 14.109375 46.140625 10.015625 43.890625 
L 10.015625 52.203125 
Q 14.9375 54.109375 19.578125 55.046875 
Q 24.21875 56 28.609375 56 
Q 40.484375 56 46.34375 49.84375 
Q 52.203125 43.703125 52.203125 31.203125 
z
" id="DejaVuSans-97"/>
      <path d="M 44.28125 53.078125 
L 44.28125 44.578125 
Q 40.484375 46.53125 36.375 47.5 
Q 32.28125 48.484375 27.875 48.484375 
Q 21.1875 48.484375 17.84375 46.4375 
Q 14.5 44.390625 14.5 40.28125 
Q 14.5 37.15625 16.890625 35.375 
Q 19.28125 33.59375 26.515625 31.984375 
L 29.59375 31.296875 
Q 39.15625 29.25 43.1875 25.515625 
Q 47.21875 21.78125 47.21875 15.09375 
Q 47.21875 7.46875 41.1875 3.015625 
Q 35.15625 -1.421875 24.609375 -1.421875 
Q 20.21875 -1.421875 15.453125 -0.5625 
Q 10.6875 0.296875 5.421875 2 
L 5.421875 11.28125 
Q 10.40625 8.6875 15.234375 7.390625 
Q 20.0625 6.109375 24.8125 6.109375 
Q 31.15625 6.109375 34.5625 8.28125 
Q 37.984375 10.453125 37.984375 14.40625 
Q 37.984375 18.0625 35.515625 20.015625 
Q 33.0625 21.96875 24.703125 23.78125 
L 21.578125 24.515625 
Q 13.234375 26.265625 9.515625 29.90625 
Q 5.8125 33.546875 5.8125 39.890625 
Q 5.8125 47.609375 11.28125 51.796875 
Q 16.75 56 26.8125 56 
Q 31.78125 56 36.171875 55.265625 
Q 40.578125 54.546875 44.28125 53.078125 
z
" id="DejaVuSans-115"/>
      <path d="M 9.078125 75.984375 
L 18.109375 75.984375 
L 18.109375 31.109375 
L 44.921875 54.6875 
L 56.390625 54.6875 
L 27.390625 29.109375 
L 57.625 0 
L 45.90625 0 
L 18.109375 26.703125 
L 18.109375 0 
L 9.078125 0 
z
" id="DejaVuSans-107"/>
     </defs>
     <g style="fill:#262626;" transform="translate(276.199838 74.283756)scale(0.165 -0.165)">
      <use xlink:href="#DejaVuSans-77"/>
      <use x="86.279297" xlink:href="#DejaVuSans-117"/>
      <use x="149.658203" xlink:href="#DejaVuSans-108"/>
      <use x="177.441406" xlink:href="#DejaVuSans-116"/>
      <use x="216.650391" xlink:href="#DejaVuSans-105"/>
      <use x="244.433594" xlink:href="#DejaVuSans-45"/>
      <use x="280.517578" xlink:href="#DejaVuSans-116"/>
      <use x="319.726562" xlink:href="#DejaVuSans-97"/>
      <use x="381.005859" xlink:href="#DejaVuSans-115"/>
      <use x="433.105469" xlink:href="#DejaVuSans-107"/>
     </g>
    </g>
   </g>
  </g>
  <g id="axes_2">
   <g id="patch_8">
    <path d="M 448.223365 199.393693 
L 716.99976 199.393693 
L 716.99976 22.677428 
L 448.223365 22.677428 
z
" style="fill:#ffffff;"/>
   </g>
   <g id="matplotlib.axis_3">
    <g id="xtick_4">
     <g id="text_15">
      <!-- 0 -->
      <g style="fill:#262626;" transform="translate(455.191411 224.431115)scale(0.165 -0.165)">
       <use xlink:href="#DejaVuSans-48"/>
      </g>
     </g>
    </g>
    <g id="xtick_5">
     <g id="text_16">
      <!-- 2 -->
      <g style="fill:#262626;" transform="translate(552.977175 224.431115)scale(0.165 -0.165)">
       <use xlink:href="#DejaVuSans-50"/>
      </g>
     </g>
    </g>
    <g id="xtick_6">
     <g id="text_17">
      <!-- 4 -->
      <g style="fill:#262626;" transform="translate(650.762939 224.431115)scale(0.165 -0.165)">
       <use xlink:href="#DejaVuSans-52"/>
      </g>
     </g>
    </g>
    <g id="text_18">
     <!-- Epoch -->
     <g style="fill:#262626;" transform="translate(555.051875 245.539787)scale(0.18 -0.18)">
      <use xlink:href="#DejaVuSans-69"/>
      <use x="63.183594" xlink:href="#DejaVuSans-112"/>
      <use x="126.660156" xlink:href="#DejaVuSans-111"/>
      <use x="187.841797" xlink:href="#DejaVuSans-99"/>
      <use x="242.822266" xlink:href="#DejaVuSans-104"/>
     </g>
    </g>
    <g id="text_19">
     <!-- 1e4 -->
     <g style="fill:#262626;" transform="translate(685.850854 243.400021)scale(0.165 -0.165)">
      <use xlink:href="#DejaVuSans-49"/>
      <use x="63.623047" xlink:href="#DejaVuSans-101"/>
      <use x="125.146484" xlink:href="#DejaVuSans-52"/>
     </g>
    </g>
   </g>
   <g id="matplotlib.axis_4">
    <g id="ytick_10">
     <g id="text_20">
      <!-- $\mathdefault{10^{1}}$ -->
      <g style="fill:#262626;" transform="translate(406.683365 176.526189)scale(0.165 -0.165)">
       <use transform="translate(0 0.684375)" xlink:href="#DejaVuSans-49"/>
       <use transform="translate(63.623047 0.684375)" xlink:href="#DejaVuSans-48"/>
       <use transform="translate(128.203125 38.965625)scale(0.7)" xlink:href="#DejaVuSans-49"/>
      </g>
     </g>
    </g>
    <g id="ytick_11">
     <g id="text_21">
      <!-- $\mathdefault{10^{3}}$ -->
      <g style="fill:#262626;" transform="translate(406.683365 134.77974)scale(0.165 -0.165)">
       <use transform="translate(0 0.765625)" xlink:href="#DejaVuSans-49"/>
       <use transform="translate(63.623047 0.765625)" xlink:href="#DejaVuSans-48"/>
       <use transform="translate(128.203125 39.046875)scale(0.7)" xlink:href="#DejaVuSans-51"/>
      </g>
     </g>
    </g>
    <g id="ytick_12">
     <g id="text_22">
      <!-- $\mathdefault{10^{5}}$ -->
      <defs>
       <path d="M 10.796875 72.90625 
L 49.515625 72.90625 
L 49.515625 64.59375 
L 19.828125 64.59375 
L 19.828125 46.734375 
Q 21.96875 47.46875 24.109375 47.828125 
Q 26.265625 48.1875 28.421875 48.1875 
Q 40.625 48.1875 47.75 41.5 
Q 54.890625 34.8125 54.890625 23.390625 
Q 54.890625 11.625 47.5625 5.09375 
Q 40.234375 -1.421875 26.90625 -1.421875 
Q 22.3125 -1.421875 17.546875 -0.640625 
Q 12.796875 0.140625 7.71875 1.703125 
L 7.71875 11.625 
Q 12.109375 9.234375 16.796875 8.0625 
Q 21.484375 6.890625 26.703125 6.890625 
Q 35.15625 6.890625 40.078125 11.328125 
Q 45.015625 15.765625 45.015625 23.390625 
Q 45.015625 31 40.078125 35.4375 
Q 35.15625 39.890625 26.703125 39.890625 
Q 22.75 39.890625 18.8125 39.015625 
Q 14.890625 38.140625 10.796875 36.28125 
z
" id="DejaVuSans-53"/>
      </defs>
      <g style="fill:#262626;" transform="translate(406.683365 93.033292)scale(0.165 -0.165)">
       <use transform="translate(0 0.684375)" xlink:href="#DejaVuSans-49"/>
       <use transform="translate(63.623047 0.684375)" xlink:href="#DejaVuSans-48"/>
       <use transform="translate(128.203125 38.965625)scale(0.7)" xlink:href="#DejaVuSans-53"/>
      </g>
     </g>
    </g>
    <g id="ytick_13">
     <g id="text_23">
      <!-- $\mathdefault{10^{7}}$ -->
      <defs>
       <path d="M 8.203125 72.90625 
L 55.078125 72.90625 
L 55.078125 68.703125 
L 28.609375 0 
L 18.3125 0 
L 43.21875 64.59375 
L 8.203125 64.59375 
z
" id="DejaVuSans-55"/>
      </defs>
      <g style="fill:#262626;" transform="translate(406.683365 51.286843)scale(0.165 -0.165)">
       <use transform="translate(0 0.684375)" xlink:href="#DejaVuSans-49"/>
       <use transform="translate(63.623047 0.684375)" xlink:href="#DejaVuSans-48"/>
       <use transform="translate(128.203125 38.965625)scale(0.7)" xlink:href="#DejaVuSans-55"/>
      </g>
     </g>
    </g>
    <g id="text_24">
     <!-- $\tau$ -->
     <defs>
      <path d="M 32.859375 9.96875 
Q 34.1875 7.625 39.453125 7.625 
L 43.75 7.625 
L 42.28125 0 
L 36.921875 0 
Q 28.125 0 25 4.6875 
Q 21.921875 9.46875 23.96875 19.828125 
L 29 45.703125 
L 8.453125 45.703125 
L 10.203125 54.6875 
L 60.640625 54.6875 
L 58.890625 45.703125 
L 38.1875 45.703125 
L 33.015625 19.28125 
Q 31.640625 12.203125 32.859375 9.96875 
z
" id="DejaVuSans-Oblique-964"/>
     </defs>
     <g style="fill:#262626;" transform="translate(398.939927 116.52556)rotate(-90)scale(0.18 -0.18)">
      <use transform="translate(0 0.3125)" xlink:href="#DejaVuSans-Oblique-964"/>
     </g>
    </g>
   </g>
   <g id="line2d_7">
    <path clip-path="url(#pd479ba86d0)" d="M 460.440474 191.361136 
L 469.852354 156.886729 
L 472.174766 149.201339 
L 472.541462 148.081442 
L 472.663694 155.620801 
L 474.741642 148.879604 
L 476.33066 144.37516 
L 477.675215 141.219133 
L 478.775305 139.177298 
L 479.753162 137.78775 
L 480.73102 136.770278 
L 481.708877 136.066547 
L 482.808967 135.560371 
L 484.153522 135.216842 
L 485.987005 135.016594 
L 488.920578 134.953532 
L 493.932098 135.079172 
L 498.943618 135.422714 
L 507.133176 136.273556 
L 508.844427 136.549449 
L 510.555678 136.551144 
L 518.745236 136.286515 
L 523.267827 136.379844 
L 525.10131 136.584311 
L 526.690329 136.755313 
L 529.012741 136.719198 
L 536.102209 136.551459 
L 537.813459 136.63275 
L 540.258104 137.051912 
L 542.336051 137.029248 
L 551.625699 136.758956 
L 565.315706 136.687504 
L 573.505263 136.791177 
L 575.827675 137.15596 
L 578.027855 137.15047 
L 589.517682 136.901973 
L 608.096977 136.831779 
L 611.152782 136.933477 
L 613.597426 137.316795 
L 615.797606 137.321593 
L 629.365381 137.060249 
L 653.934054 136.953706 
L 667.135132 137.032438 
L 669.702008 137.335383 
L 672.513349 137.322622 
L 685.103266 137.13232 
L 704.782651 137.052508 
L 704.782651 137.052508 
" style="fill:none;stroke:#4c72b0;stroke-linecap:round;stroke-width:2.25;"/>
   </g>
   <g id="line2d_8">
    <path clip-path="url(#pd479ba86d0)" d="M 460.440474 191.361136 
L 472.541462 146.49079 
L 472.663694 155.102351 
L 488.676113 96.633599 
L 491.85415 85.964351 
L 494.176562 78.909488 
L 496.132278 73.678801 
L 497.843529 69.737145 
L 499.432547 66.630267 
L 500.899334 64.21145 
L 502.36612 62.182107 
L 503.955139 60.358147 
L 505.055229 59.494563 
L 505.421925 59.150467 
L 505.910854 58.359434 
L 506.155318 57.891721 
L 506.399783 58.150903 
L 507.010944 59.032885 
L 507.499873 59.317207 
L 507.988802 59.302121 
L 508.722195 59.001874 
L 510.433446 57.957113 
L 516.422824 54.263832 
L 521.067647 51.630554 
L 521.923273 51.410906 
L 522.656666 51.320305 
L 523.634524 50.966562 
L 524.123453 51.7032 
L 524.612381 52.264557 
L 525.10131 52.451994 
L 525.712471 52.367384 
L 526.690329 51.939914 
L 536.835602 46.653033 
L 537.202298 47.222266 
L 537.813459 48.154095 
L 538.302388 48.503853 
L 538.913549 48.62524 
L 539.891407 48.523002 
L 543.069444 47.817097 
L 559.44856 44.164493 
L 572.405173 41.417297 
L 572.894102 42.248963 
L 573.383031 42.935805 
L 573.87196 43.273728 
L 574.483121 43.396956 
L 575.460979 43.318804 
L 578.88348 42.674358 
L 603.085457 38.079446 
L 610.052692 36.896007 
L 611.275015 38.635019 
L 611.886176 38.878191 
L 612.741801 38.917821 
L 614.941981 38.690729 
L 665.790578 32.654216 
L 665.91281 32.722548 
L 667.135132 34.47987 
L 667.746293 34.723422 
L 668.601919 34.765559 
L 670.802098 34.552109 
L 704.782651 30.709985 
L 704.782651 30.709985 
" style="fill:none;stroke:#dd8452;stroke-linecap:round;stroke-width:2.25;"/>
   </g>
   <g id="patch_9">
    <path d="M 448.223365 199.393693 
L 448.223365 22.677428 
" style="fill:none;stroke:#262626;stroke-linecap:square;stroke-linejoin:miter;stroke-width:1.875;"/>
   </g>
   <g id="patch_10">
    <path d="M 716.99976 199.393693 
L 716.99976 22.677428 
" style="fill:none;stroke:#262626;stroke-linecap:square;stroke-linejoin:miter;stroke-width:1.875;"/>
   </g>
   <g id="patch_11">
    <path d="M 448.223365 199.393693 
L 716.99976 199.393693 
" style="fill:none;stroke:#262626;stroke-linecap:square;stroke-linejoin:miter;stroke-width:1.875;"/>
   </g>
   <g id="patch_12">
    <path d="M 448.223365 22.677428 
L 716.99976 22.677428 
" style="fill:none;stroke:#262626;stroke-linecap:square;stroke-linejoin:miter;stroke-width:1.875;"/>
   </g>
   <g id="text_25">
    <!-- Precision -->
    <defs>
     <path d="M 19.671875 64.796875 
L 19.671875 37.40625 
L 32.078125 37.40625 
Q 38.96875 37.40625 42.71875 40.96875 
Q 46.484375 44.53125 46.484375 51.125 
Q 46.484375 57.671875 42.71875 61.234375 
Q 38.96875 64.796875 32.078125 64.796875 
z
M 9.8125 72.90625 
L 32.078125 72.90625 
Q 44.34375 72.90625 50.609375 67.359375 
Q 56.890625 61.8125 56.890625 51.125 
Q 56.890625 40.328125 50.609375 34.8125 
Q 44.34375 29.296875 32.078125 29.296875 
L 19.671875 29.296875 
L 19.671875 0 
L 9.8125 0 
z
" id="DejaVuSans-80"/>
     <path d="M 41.109375 46.296875 
Q 39.59375 47.171875 37.8125 47.578125 
Q 36.03125 48 33.890625 48 
Q 26.265625 48 22.1875 43.046875 
Q 18.109375 38.09375 18.109375 28.8125 
L 18.109375 0 
L 9.078125 0 
L 9.078125 54.6875 
L 18.109375 54.6875 
L 18.109375 46.1875 
Q 20.953125 51.171875 25.484375 53.578125 
Q 30.03125 56 36.53125 56 
Q 37.453125 56 38.578125 55.875 
Q 39.703125 55.765625 41.0625 55.515625 
z
" id="DejaVuSans-114"/>
     <path d="M 54.890625 33.015625 
L 54.890625 0 
L 45.90625 0 
L 45.90625 32.71875 
Q 45.90625 40.484375 42.875 44.328125 
Q 39.84375 48.1875 33.796875 48.1875 
Q 26.515625 48.1875 22.3125 43.546875 
Q 18.109375 38.921875 18.109375 30.90625 
L 18.109375 0 
L 9.078125 0 
L 9.078125 54.6875 
L 18.109375 54.6875 
L 18.109375 46.1875 
Q 21.34375 51.125 25.703125 53.5625 
Q 30.078125 56 35.796875 56 
Q 45.21875 56 50.046875 50.171875 
Q 54.890625 44.34375 54.890625 33.015625 
z
" id="DejaVuSans-110"/>
    </defs>
    <g style="fill:#262626;" transform="translate(542.458906 16.677428)scale(0.18 -0.18)">
     <use xlink:href="#DejaVuSans-80"/>
     <use x="58.552734" xlink:href="#DejaVuSans-114"/>
     <use x="97.416016" xlink:href="#DejaVuSans-101"/>
     <use x="158.939453" xlink:href="#DejaVuSans-99"/>
     <use x="213.919922" xlink:href="#DejaVuSans-105"/>
     <use x="241.703125" xlink:href="#DejaVuSans-115"/>
     <use x="293.802734" xlink:href="#DejaVuSans-105"/>
     <use x="321.585938" xlink:href="#DejaVuSans-111"/>
     <use x="382.767578" xlink:href="#DejaVuSans-110"/>
    </g>
   </g>
   <g id="legend_2">
    <g id="patch_13">
     <path d="M 634.82976 84.31524 
L 705.44976 84.31524 
Q 708.74976 84.31524 708.74976 81.01524 
L 708.74976 34.227428 
Q 708.74976 30.927428 705.44976 30.927428 
L 634.82976 30.927428 
Q 631.52976 30.927428 631.52976 34.227428 
L 631.52976 81.01524 
Q 631.52976 84.31524 634.82976 84.31524 
z
" style="fill:#ffffff;opacity:0.8;stroke:#cccccc;stroke-linejoin:miter;stroke-width:1.5;"/>
    </g>
    <g id="line2d_9">
     <path d="M 638.12976 44.289849 
L 671.12976 44.289849 
" style="fill:none;stroke:#4c72b0;stroke-linecap:round;stroke-width:2.25;"/>
    </g>
    <g id="line2d_10"/>
    <g id="text_26">
     <!-- $\tau_1$ -->
     <g style="fill:#262626;" transform="translate(684.32976 50.064849)scale(0.165 -0.165)">
      <use transform="translate(0 0.3125)" xlink:href="#DejaVuSans-Oblique-964"/>
      <use transform="translate(60.205078 -16.09375)scale(0.7)" xlink:href="#DejaVuSans-49"/>
     </g>
    </g>
    <g id="line2d_11">
     <path d="M 638.12976 68.508756 
L 671.12976 68.508756 
" style="fill:none;stroke:#dd8452;stroke-linecap:round;stroke-width:2.25;"/>
    </g>
    <g id="line2d_12"/>
    <g id="text_27">
     <!-- $\tau_2$ -->
     <g style="fill:#262626;" transform="translate(684.32976 74.283756)scale(0.165 -0.165)">
      <use transform="translate(0 0.3125)" xlink:href="#DejaVuSans-Oblique-964"/>
      <use transform="translate(60.205078 -16.09375)scale(0.7)" xlink:href="#DejaVuSans-50"/>
     </g>
    </g>
   </g>
  </g>
 </g>
 <defs>
  <clipPath id="pec70b7fe32">
   <rect height="176.716266" width="268.776395" x="103.285865" y="22.677428"/>
  </clipPath>
  <clipPath id="pd479ba86d0">
   <rect height="176.716266" width="268.776395" x="448.223365" y="22.677428"/>
  </clipPath>
 </defs>
</svg>
